<svg height='100px' width='100px'  fill="#000000" xmlns="http://www.w3.org/2000/svg" data-name="Layer 1" viewBox="0 0 100 100" x="0px" y="0px"><path d="M76.952,17.15245a8.24209,8.24209,0,0,0-3.08886-5.92389,11.17973,11.17973,0,0,0-6.98249-2.22174,17.52972,17.52972,0,0,0-7.87542,2.1698c-.12818.0661-.25342.13751-.3805.20556A22.78637,22.78637,0,0,0,51.95,10.01542a59.88771,59.88771,0,0,0-8.32043-.05023A14.9393,14.9393,0,0,0,37.02734,11.673a8.01169,8.01169,0,0,0-3.79492,5.7406,24.1092,24.1092,0,0,0,.471,8.52137,40.25258,40.25258,0,0,0,2.75366,8.577c.59515,1.325,1.4613,2.464,2.16119,3.72736a16.88929,16.88929,0,0,1,1.39917,4.25134,89.77966,89.77966,0,0,0,2.24524,8.85028c.5116,1.449,1.06635,2.88757,1.66364,4.30322a19.55973,19.55973,0,0,0,2.434,4.59833c.10119.12775.2135.2616.33569.38764A6.29445,6.29445,0,0,0,42.71649,61.683a4.79055,4.79055,0,0,0-1.91431,3.90161,3.60467,3.60467,0,0,0,.40162,1.67859,24.29894,24.29894,0,0,0-9.84113.57416A20.60446,20.60446,0,0,0,27.404,69.37754a2.47984,2.47984,0,0,0-.75049.40448c-.01855.01056-.03753.02027-.056.03089a.20626.20626,0,0,0-.08081.08984,6.61917,6.61917,0,0,0-1.47955,3.13062c-.59912,2.10516-1.1463,4.2315-1.59094,6.37506a12.82713,12.82713,0,0,0-.25739,5.04077,5.39328,5.39328,0,0,0,2.574,3.66553,12.41107,12.41107,0,0,0,4.58447,1.48156q3.21505.47,6.449.80024c2.05933.21191,4.12659.41918,6.19367.53869a23.15776,23.15776,0,0,0,5.53949-.24786A20.256,20.256,0,0,0,53.994,88.693a36.36544,36.36544,0,0,0,4.9934-3.06036,35.48278,35.48278,0,0,0,4.36377-3.74554,15.49689,15.49689,0,0,0,3.20392-4.39545,8.632,8.632,0,0,0,.60816-5.254,30.08,30.08,0,0,0-1.99927-5.57532,24.33953,24.33953,0,0,1-1.699-11.97448A23.67025,23.67025,0,0,1,64.041,51.576a.227.227,0,0,0-.43737-.12061,24.44541,24.44541,0,0,0-.0907,11.60053,35.30482,35.30482,0,0,0,1.92956,5.43658,14.40525,14.40525,0,0,1,1.44642,5.58918c-.034,3.7138-2.85834,6.6867-5.46149,9.00439a35.90866,35.90866,0,0,1-9.55622,6.10754,16.45437,16.45437,0,0,1-5.524,1.30555,37.12126,37.12126,0,0,1-5.59027-.18757c-2.05994-.18157-4.11884-.37115-6.17279-.6123a44.759,44.759,0,0,1-5.778-.86627,7.697,7.697,0,0,1-4.17853-2.25568,6.59023,6.59023,0,0,1-1.09533-4.75342,35.288,35.288,0,0,1,1.139-5.67431q.398-1.581.84681-3.14856a6.78837,6.78837,0,0,1,1.01507-2.49323q.057-.06957.1167-.13257a13.828,13.828,0,0,0,8.62647,6.555,24.53916,24.53916,0,0,0,13.345-.15613,48.436,48.436,0,0,0,7.86718-3.008.22861.22861,0,0,0,0-.39166A54.27837,54.27837,0,0,0,47.51,68.99388a25.95046,25.95046,0,0,0-5.60431-1.62116.47989.47989,0,0,1-.2049-.15613,1.965,1.965,0,0,1-.25927-.52624,4.28565,4.28565,0,0,1,.9096-4.08814,5.853,5.853,0,0,1,5.212-1.43823c.28284.04334.41077-.38287.12054-.43738-.53112-.09973-.93017-.68591-1.21575-1.09613a16.59841,16.59841,0,0,1-1.2826-2.28228c-.7655-1.58515-1.40942-3.227-2.02356-4.87568a53.683,53.683,0,0,1-2.04187-7.178c-.3352-1.5119-.66314-3.02655-1.077-4.51947a14.83748,14.83748,0,0,0-.68061-2.05938,12.80724,12.80724,0,0,0-.99731-1.7583,21.32075,21.32075,0,0,1-2.077-4.043c-.54052-1.41706-1.06048-2.84528-1.47442-4.30493a31.51993,31.51993,0,0,1-1.31427-9.08063c.05011-2.68421.82824-5.36957,3.07971-7.01978a12.98077,12.98077,0,0,1,6.699-2.06421,58.72531,58.72531,0,0,1,8.29175-.00122,23.32909,23.32909,0,0,1,6.52814,1.22327c-.95148.53491-1.8747,1.12-2.778,1.73242-1.03881.70429-2.1264,1.33985-3.1408,2.07959a7.87649,7.87649,0,0,0-2.4068,2.52851,11.09241,11.09241,0,0,0-1.1062,3.78173c-.18256,1.35407-.1886,2.71326-.27008,4.07434-.08838,1.47632-.28138,2.94562-.51276,4.40571-.21552,1.36022-.46893,2.71417-.73718,4.06488a.2217.2217,0,0,0,.01526.13226,2.78859,2.78859,0,0,0,.74316,2.27014,4.55177,4.55177,0,0,0,1.99036,1.057,19.59339,19.59339,0,0,0,2.733.58593,22.75322,22.75322,0,0,0,3.85937.2323,2.49158,2.49158,0,0,0,.31946-.00842q.7554-.02893,1.50836-.10681a23.50526,23.50526,0,0,0,2.79071-.46283,5.58193,5.58193,0,0,0,1.75037-.65881,4.56788,4.56788,0,0,0,1.8009-5.36481,4.314,4.314,0,0,0-1.9862-2.32044,8.46031,8.46031,0,0,0-2.10462-.71368A19.56685,19.56685,0,0,0,57.77,28.53776q-.37527-.03286-.75159-.05383a2.89031,2.89031,0,0,0-.33819-.015q-.91206-.04037-1.82532-.02826a6.06314,6.06314,0,0,0-1.36267.09c-.43274.10663-.87342.218-1.29987.34766A7.67228,7.67228,0,0,0,48.42425,31.502c-.13562.17469-.26092.356-.38055.54114a53.59262,53.59262,0,0,0,.79315-5.98053c.1781-2.665.02356-5.57672,1.4101-7.97522a8.377,8.377,0,0,1,2.66168-2.56878c1.06232-.72382,2.15216-1.41278,3.22638-2.11921.81567-.53637,1.65338-1.04956,2.514-1.51959a14.43568,14.43568,0,0,1,1.435.67523,10.96361,10.96361,0,0,1,5.09449,5.35132,18.41507,18.41507,0,0,0,1.47467,3.776,4.68022,4.68022,0,0,0,2.16949,1.6919,6.25731,6.25731,0,0,0,5.60993-.63556A6.18645,6.18645,0,0,0,76.952,17.15245ZM49.67682,70.349c.08069.03509.16192.069.24249.10449a57.71361,57.71361,0,0,1,5.96814,3.09369C51.60882,75.53642,47.038,77.16563,42.282,77.331a19.41276,19.41276,0,0,1-11.24585-2.81146,11.73931,11.73931,0,0,1-4.019-4.42059q.292-.16316.58887-.31561c1.18115-.3628,2.659.18774,3.75866.59832a22.07241,22.07241,0,0,0,4.99427,1.22A32.45023,32.45023,0,0,0,47.09412,71.039q1.25463-.26669,2.48608-.62811A.21482.21482,0,0,0,49.67682,70.349Zm-7.955-2.54273a5.029,5.029,0,0,0,.74982.16321q.77508.174,1.54217.38123c1.11121.3,2.20764.65271,3.28846,1.04834q.8127.33737,1.601.73126A33.52847,33.52847,0,0,1,38.297,71.3195a22.9855,22.9855,0,0,1-5.50489-.92218,18.45241,18.45241,0,0,0-3.99676-1.17688A23.2215,23.2215,0,0,1,41.7218,67.80625ZM61.42334,29.67778A4.01508,4.01508,0,0,1,63.27313,36.475a6.16545,6.16545,0,0,1-3.4364,1.35357c-.58649.10327-1.17737.18109-1.77032.23737a2.77232,2.77232,0,0,0,.66857-.86231,5.69388,5.69388,0,0,0,.40021-2.78735,11.06317,11.06317,0,0,0-1.23443-5.40912A17.66473,17.66473,0,0,1,61.42334,29.67778Zm-4.3858-.73688c.0542.00769.10846.01239.16253.02405a.222.222,0,0,0,.11457-.00605l.02246.00147a8.84975,8.84975,0,0,1,1.296,4.41821c.10339,1.43366.36254,3.505-.99573,4.46484a1.76062,1.76062,0,0,1-.82294.306c-.1048.00409-.20959.00885-.31445.01148a2.3935,2.3935,0,0,1-.89588-.21472,3.1019,3.1019,0,0,1-1.50048-1.58832,7.15229,7.15229,0,0,1-.53748-2.23242,7.3404,7.3404,0,0,1,.09131-2.42554,3.75123,3.75123,0,0,1,1.28705-2.13715,2.91574,2.91574,0,0,1,1.62152-.64465C56.7232,28.92442,56.88037,28.93174,57.03754,28.9409Zm-8.85968,3.75415a7.32265,7.32265,0,0,1,3.14141-2.98181,11.9043,11.9043,0,0,1,2.20545-.72162,5.13226,5.13226,0,0,1,1.27563-.09662c.11792-.00171.2359-.001.35382-.00147a3.93156,3.93156,0,0,0-1.641,1.82215,6.08254,6.08254,0,0,0-.44934,2.591,9.41747,9.41747,0,0,0,.41309,2.66437,4.03777,4.03777,0,0,0,1.36554,2.04254c.06488.0481.13269.09265.20135.13587-.15021-.00586-.30041-.01117-.4505-.02009a21.51381,21.51381,0,0,1-2.99829-.38861,10.4991,10.4991,0,0,1-2.50812-.73138,2.44179,2.44179,0,0,1-1.47442-1.877A4.13668,4.13668,0,0,1,48.17786,32.69505ZM74.54529,22.09739a5.77528,5.77528,0,0,1-5.7204.79053,4.26969,4.26969,0,0,1-2.20514-2.19751c-.55975-1.22461-.7749-2.5697-1.40027-3.7713a11.84177,11.84177,0,0,0-5.12091-4.86957q-.46023-.23959-.93371-.44446a19.80917,19.80917,0,0,1,4.79376-1.80737,12.301,12.301,0,0,1,7.75012.64471,8.05671,8.05671,0,0,1,4.583,5.3772A6.1534,6.1534,0,0,1,74.54529,22.09739Z"></path></svg>