<svg height='100px' width='100px'  fill="#000000" xmlns="http://www.w3.org/2000/svg" data-name="Layer 1" viewBox="0 0 100 100" x="0px" y="0px"><path d="M82.32748,55.25273c-.41095-.98431-1.43176-1.25183-2.37091-1.51373-.42962-.11987-.86456-.22113-1.30157-.31409-.00531-.20465-.009-.40942-.01587-.61383-.12158-3.65466-.4148-7.31628-.79285-10.95306a8.73115,8.73115,0,0,0-.97-3.59259,3.70667,3.70667,0,0,0-3.24707-1.78375,22.47018,22.47018,0,0,0-2.51691.16913q-1.40688.12157-2.816.21514c-1.3305.09-2.66192.16425-3.99353.23548a2.37613,2.37613,0,0,0-.07776-.28314,4.65461,4.65461,0,0,0-2.58721-2.45606,12.823,12.823,0,0,0-7.54261-.70172,14.48762,14.48762,0,0,0-6.83856,3.3255,12.98187,12.98187,0,0,0-2.11072,2.38287,13.964,13.964,0,0,1,1.59174-8.56134,13.4,13.4,0,0,1,6.90265-6.04809,13.86812,13.86812,0,0,1,9.10016-.356,32.58144,32.58144,0,0,1,7.90594,4.18414c2.77869,1.798,5.638,3.61243,8.91474,4.32727a.21629.21629,0,0,0,.24072-.31317,56.01665,56.01665,0,0,0-9.034-15.20953,29.74075,29.74075,0,0,0-14.205-9.3028,21.90926,21.90926,0,0,0-9.03625-.62616q-.19107.02793-.38184.05951c-.27008.0448-.15551.45575.11335.4112q.15087-.025.30188-.04761a23.70335,23.70335,0,0,1,15.85064,3.71283,36.58622,36.58622,0,0,1,11.675,12.51428,69.14976,69.14976,0,0,1,4.1698,8.29022c-5.98157-1.48681-10.33679-6.44085-16.16-8.33483a14.24673,14.24673,0,0,0-16.33051,5.84588A14.40218,14.40218,0,0,0,44.816,40c.0343.19031.29956.19446.38965.0509a13.80312,13.80312,0,0,1,12.68518-6.1712,10.71887,10.71887,0,0,1,3.64075.9013,4.05944,4.05944,0,0,1,2.33966,2.34357c-.35505.01874-.71009.03864-1.06513.05707-1.85931.09674-3.71875.19153-5.57678.31061-1.79779.11529-3.61816.20208-5.40436.44342a5.24028,5.24028,0,0,0-3.14123,1.68493c-.5907.6413-1.45722,1.68573-1.31012,2.61939.15826,1.0047,1.23748,1.37658,2.10742,1.55853a11.10626,11.10626,0,0,0,4.15533-.06946,23.305,23.305,0,0,0,4.98218-1.54193c.76349-.32068,1.51672-.66479,2.26428-1.02112A12.1212,12.1212,0,0,0,63.071,40.01366a3.11485,3.11485,0,0,0,1.28516-2.48749c2.44714-.1311,4.89362-.27759,7.33435-.50036,1.45886-.13318,3.1333-.368,4.2804.7608a5.79629,5.79629,0,0,1,1.36181,3.36169c.23248,1.58942.31928,3.20984.45288,4.80994.144,1.72516.271,3.452.3573,5.181q.05466,1.09562.0838,2.19513a33.12543,33.12543,0,0,0-5.5512-.53742,35.16048,35.16048,0,0,0-7.16889.50971c-2.53076.47-5.1546,1.412-6.77917,3.51861-1.72376,2.23511-2.06476,5.18689-1.823,7.9184a43.84808,43.84808,0,0,0,.73382,4.60657,6.22343,6.22343,0,0,0,1.5625,3.50427c1.74158,1.61823,4.4748,1.33051,6.39508.22174a14.5484,14.5484,0,0,0,4.61585-5.03815c.65918-1.02545,1.29169-2.069,1.99322-3.06671a11.66247,11.66247,0,0,1,2.12067-2.24774,39.7718,39.7718,0,0,1,3.77344-2.7204,42.13,42.13,0,0,1-1.93506,10.25818,30.183,30.183,0,0,1-3.82416,7.773,25.0675,25.0675,0,0,1-6.142,6.14032c-4.741,3.34491-10.31726,5.22248-15.78131,7.01422-3.03894.99652-6.24231.98523-9.40454,1.09864a15.04924,15.04924,0,0,1-5.09552-.50013A8.18161,8.18161,0,0,1,31.37344,88.538c-1.496-2.31659-1.46777-5.26562-1.2489-7.91534.12287-1.4867.34662-2.962.58643-4.43372a8.92758,8.92758,0,0,0,8.5871.19574,25.38687,25.38687,0,0,0,4.57482-3.81286,14.7922,14.7922,0,0,1,1.15924-.94452,1.42855,1.42855,0,0,0,.39191-1.91187,3.872,3.872,0,0,0-1.0498-.84582A10.00087,10.00087,0,0,1,43.16592,67.801a27.45587,27.45587,0,0,1-1.82141-2.31207,9.73367,9.73367,0,0,0-2.0675-2.07727,4.44562,4.44562,0,0,0-3.81439-.6731,7.54839,7.54839,0,0,0,1.71331-3.50415,4.14152,4.14152,0,0,0-.558-2.75372c1.835.82263,3.8808,1.4281,5.74225.3609a3.12263,3.12263,0,0,0,1.61389-2.34039,3.90607,3.90607,0,0,0-1.07-2.89685,8.02845,8.02845,0,0,0-5.52435-2.50183,10.36229,10.36229,0,0,0-5.77124,1.28894A9.42834,9.42834,0,0,0,28.86,52.69268a3.1666,3.1666,0,0,1-.72614-1.6634,5.41131,5.41131,0,0,1,.94531-3.44262,33.8276,33.8276,0,0,1,2.42609-3.0362,18.27122,18.27122,0,0,0,2.02606-3.10107,18.74471,18.74471,0,0,0,2.02558-7.08551c.04785-.59961.064-1.20081.05236-1.80219a.21333.21333,0,0,0-.42639,0,18.17592,18.17592,0,0,1-2.73144,9.92713,22.70694,22.70694,0,0,1-2.117,2.791c-1.43072,1.66608-2.96637,3.62677-2.59735,5.97321a3.65836,3.65836,0,0,0,.85663,1.79754,5.701,5.701,0,0,0-.95,2.1651,2.886,2.886,0,0,0,.74518,2.75666,2.59179,2.59179,0,0,0,2.31524.597,1.77978,1.77978,0,0,0,1.231-2.0249,4.47682,4.47682,0,0,0-1.852-2.67181,11.3082,11.3082,0,0,1-.92334-.83954,8.391,8.391,0,0,1,1.105-1.17475,9.64272,9.64272,0,0,1,10.52692-1.37756c1.67175.87335,3.61969,3.02985,2.40967,5.00134a3.41931,3.41931,0,0,1-2.31781,1.4466,6.14059,6.14059,0,0,1-3.34955-.50958c-.58332-.23121-1.14759-.50806-1.71076-.78382a.21336.21336,0,0,0-.21521.36817A3.42,3.42,0,0,1,36.71951,59.41a9.438,9.438,0,0,1-2.13507,3.78375,2.63854,2.63854,0,0,0-.46216.44239c-.25152.31164-.374.79284-.76861.95312-.40351.16388-.73792-.21545-.98633-.48108a3.38874,3.38874,0,0,0-.912-.78491,2.79411,2.79411,0,0,0-2.42254.03809,4.01621,4.01621,0,0,0-1.81,1.991,8.30568,8.30568,0,0,0-.49512,5.18378,8.8689,8.8689,0,0,0,2.525,4.56244,7.92137,7.92137,0,0,0,1.0672.84772c-.824,5.00512-1.999,11.76672,2.91839,15.05609a11.14743,11.14743,0,0,0,5.20679,1.70441,23.95148,23.95148,0,0,0,2.94305-.00568c1.71112-.05646,3.42591-.08679,5.12952-.27039a39.26123,39.26123,0,0,0,9.10657-2.57043,52.46431,52.46431,0,0,0,8.41436-3.79913,27.37045,27.37045,0,0,0,7.02655-5.694,28.202,28.202,0,0,0,4.66053-7.70368,40.90038,40.90038,0,0,0,2.81891-12.94909c.59246-.38282,1.18689-.762,1.77722-1.144.42248-.2735.84393-.54864,1.26013-.83154A2.05971,2.05971,0,0,0,82.32748,55.25273Zm-19.228-15.82305a6.82452,6.82452,0,0,1-1.869,1.09747A42.37853,42.37853,0,0,1,56.68021,42.48a17.96919,17.96919,0,0,1-4.802,1.0332,7.06428,7.06428,0,0,1-3.22876-.4165,1.17007,1.17007,0,0,1-.82769-1.38532,4.14348,4.14348,0,0,1,.65057-1.15307,5.19565,5.19565,0,0,1,2.72339-2.0564,12.66911,12.66911,0,0,1,2.46863-.31781q1.28329-.11142,2.56848-.1991c1.718-.119,3.43756-.21313,5.15729-.30328q1.27138-.06665,2.543-.13269A2.566,2.566,0,0,1,63.09952,39.42968ZM29.36411,53.82286a5.78756,5.78756,0,0,1,2.055,2.379,1.42547,1.42547,0,0,1-1.02039,1.99756,2.19108,2.19108,0,0,1-2.03552-.88971,3.19936,3.19936,0,0,1,.05957-3.08594,6.37892,6.37892,0,0,1,.48029-.8338C29.04965,53.53911,29.20267,53.684,29.36411,53.82286ZM27.09329,67.158c.314-1.61628,1.2616-3.61884,3.16211-3.66681a2.02864,2.02864,0,0,1,1.17859.31195,6.54813,6.54813,0,0,1,.829.80914,1.36229,1.36229,0,0,0,.85632.44684,1.133,1.133,0,0,0,.91748-.49042,5.567,5.567,0,0,1,.62421-.88794,2.43541,2.43541,0,0,1,.87024-.51544,3.70342,3.70342,0,0,1,2.09-.05383c1.73907.4342,2.89965,1.96429,3.91449,3.33319a14.24289,14.24289,0,0,0,1.78619,2.10309,10.4693,10.4693,0,0,0,1.14331.90918c.33673.23065.6734.41742.74091.85772.0047.0307.00573.06134.00744.092a7.84441,7.84441,0,0,1-3.53564-.37518,29.87821,29.87821,0,0,1-3.35108-1.96222,6.07113,6.07113,0,0,0-3.77728-.7655,9.6714,9.6714,0,0,0-3.67078,1.43194,22.55568,22.55568,0,0,0-3.5169,2.53107A8.35067,8.35067,0,0,1,27.09329,67.158ZM41.263,70.31273a26.21079,26.21079,0,0,1-5.8197,1.83649,13.83035,13.83035,0,0,1-5.31561.19513,7.0594,7.0594,0,0,1-2.39161-.83545,21.83467,21.83467,0,0,1,3.00843-2.19324,10.29175,10.29175,0,0,1,3.61908-1.556,5.695,5.695,0,0,1,3.82629.72113C39.2291,69.06279,40.17178,69.82634,41.263,70.31273Zm-13.603,1.753c-.01977-.04571-.03784-.09228-.05682-.13836a9.422,9.422,0,0,0,4.78589,1.01825,21.90446,21.90446,0,0,0,5.85657-1.053A21.27211,21.27211,0,0,0,41.752,70.55291a.1947.1947,0,0,0,.04181-.03272,8.40279,8.40279,0,0,0,3.34687.31818,1.02345,1.02345,0,0,1-.32374.42077c-1.50152,1.08979-2.71612,2.50714-4.14953,3.67731a8.44657,8.44657,0,0,1-9.77472.87006A8.04507,8.04507,0,0,1,27.66006,72.06572ZM78.136,59.48259c-.79193.51477-1.5791,1.03681-2.3476,1.58722A24.08083,24.08083,0,0,0,73.2261,63.128a13.1003,13.1003,0,0,0-1.86761,2.32935,40.21376,40.21376,0,0,1-3.90277,5.56933c-1.50867,1.60156-3.61694,2.84155-5.89282,2.47626A3.73466,3.73466,0,0,1,58.843,71.71532a12.03842,12.03842,0,0,1-1.056-3.85211c-.5188-2.80213-.88928-5.75391.06824-8.5072a7.63951,7.63951,0,0,1,2.08227-3.20966,9.4254,9.4254,0,0,1,3.3302-1.83459A24.71636,24.71636,0,0,1,70.035,53.25a37.04862,37.04862,0,0,1,7.23871.35687c.322.05005.64319.10767.96356.16962C78.27847,55.67876,78.25516,57.585,78.136,59.48259Zm3.91815-3.25708a1.61423,1.61423,0,0,1-.68744,1.14514c-.91827.62427-1.85437,1.22132-2.78687,1.82373.10273-1.7749.12336-3.5559.08649-5.33026a18.22066,18.22066,0,0,1,1.77625.46552,2.49058,2.49058,0,0,1,1.24719.67755A1.651,1.651,0,0,1,82.05417,56.22551Z"></path></svg>