<svg height='100px' width='100px'  fill="#000000" xmlns="http://www.w3.org/2000/svg" data-name="Layer 1" viewBox="0 0 100 100" x="0px" y="0px"><path d="M76.91555,38.14307a118.229,118.229,0,0,0-8.3352,17.9718c-1.503.58484-2.99714,1.19245-4.48609,1.81165-.39325.16351-.79.3222-1.18622.483a11.27744,11.27744,0,0,1,2.51325-7.99957.25378.25378,0,0,0-.17676-.42676c-4.02881-.395-12.28076.74975-12.74957-5.25665-.22553-2.88977,2.47717-3.91327,4.87732-4.02546,2.287-.10687,4.59137.19568,6.84649-.34015a6.39694,6.39694,0,0,0,4.02-2.38989c.92572-1.471.29218-2.91272-.16772-4.42395a20.92536,20.92536,0,0,1-.87445-7.28265c.14007-2.59863.49694-5.19092.39257-7.79816-.12158-3.03717-.92828-6.79217-3.44982-8.78064C61.18148,7.353,56.1401,8.5531,52.8453,9.3761a50.0637,50.0637,0,0,0-12.3465,4.86249,48.50328,48.50328,0,0,0-5.62158,3.6839c-1.38348,1.05017-3.61578,2.37439-4.17877,4.11621-.62885,1.94556,1.22137,3.55786,2.52789,4.67957a26.6307,26.6307,0,0,0,2.94318,2.19482c.95965.61694,2.02667,1.07178,2.96612,1.71173.32556.22174,1.23621.85162,1.32056,1.30628.21954,1.18322-1.4278.63092-1.89172.50891a23.94028,23.94028,0,0,1-3.33161-1.516c-1.44714-.62415-3.3678-.67981-4.26269.8352a.25206.25206,0,0,0,.14941.36725,9.52513,9.52513,0,0,1,4.01306,1.828,3.16785,3.16785,0,0,0-2.05749,2.082A3.331,3.331,0,0,0,33.78,39.30329q-1.11117-.46243-2.17718-1.03217c-.01679-.009-.0307.0008-.04718-.00427a.18567.18567,0,0,0-.13971-.01263.20684.20684,0,0,0-.03077.01483c-.02886.01336-.0595.01062-.08532.04113A30.95032,30.95032,0,0,0,24.568,50.37433c-1.21381,4.808.31128,9.46485.73571,14.25916a17.72162,17.72162,0,0,1-1.00256,7.63128,22.15673,22.15673,0,0,0-1.67273,6.236,6.82145,6.82145,0,0,0,1.4231,4.82953,7.07878,7.07878,0,0,0,4.83752,2.0664c5.22809.5138,10.55481.145,15.80054.40552,2.27.11273,4.52215.45251,6.79077.58655a13.69819,13.69819,0,0,0,5.60632-.46491c2.68836-1.02636,4.2547-3.73455,5.28162-6.26873a40.37422,40.37422,0,0,0,1.84222-6.26166c3.04346-.73352,5.867-2.154,6.99518-5.35291.87232-2.47339.20972-5.16223,1.17316-7.571.76275-1.90717,2.21-3.88269,2.299-5.99054.00061-.01483-.01154-.0199-.013-.03333l-.00226-.00586a.21756.21756,0,0,0-.25647-.19085c-.0166-.00055-.027-.01368-.04474-.011a23.45386,23.45386,0,0,0-4.66607,1.44043c-.1626.06116-.32306.128-.48536.19a117.87082,117.87082,0,0,1,8.13733-17.473A.2502.2502,0,0,0,76.91555,38.14307ZM64.424,58.32685q1.95474-.81217,3.92475-1.58777-1.2758,3.55161-2.32544,7.18133c-.86145,3.00135-1.51367,6.042-2.22394,9.076q-.373.08076-.74432.14948c-1.90607.35522-4.57856,1.00049-6.42.10675-1.2475-.60541-1.47088-1.918-1.39966-3.18591a22.79922,22.79922,0,0,1,.54181-4.03046,9.20091,9.20091,0,0,1,4.4292-5.81757A17.967,17.967,0,0,1,62.496,59.1109a11.6909,11.6909,0,0,0,.53162,2.33741c.10541.30188.58856.172.48218-.13294a11.37147,11.37147,0,0,1-.53638-2.39966C63.45882,58.71943,63.94485,58.52594,64.424,58.32685ZM33.47451,36.50641A2.683,2.683,0,0,1,35.285,34.43024a3.42838,3.42838,0,0,1,1.44983,1.87286,2.33339,2.33339,0,0,1-.26947,2.428,1.737,1.737,0,0,1-2.09943.39167A2.58775,2.58775,0,0,1,33.47451,36.50641Zm2.93323,2.933a2.6252,2.6252,0,0,0,.988-2.69733,3.47373,3.47373,0,0,0-.13336-.47833c.13141.2016.26569.40112.38208.61389a8.75526,8.75526,0,0,1,.7605,1.86957c.12958.46893-.11737,1.54449-.636,1.74572a4.33412,4.33412,0,0,1-1.42431-.29931q-.62055-.17083-1.2273-.37909A2.27406,2.27406,0,0,0,36.40774,39.4394Zm27.07,34.92529c-.72217,2.97742-1.60688,6.14154-3.479,8.6236A6.88152,6.88152,0,0,1,56.21169,85.673a19.32867,19.32867,0,0,1-6.16412.1076c-4.69672-.40954-9.34668-.57336-14.06213-.67267-2.355-.04962-4.7508.024-7.09638-.21118-2.44891-.2456-4.72259-1.2605-5.4798-3.79181-1.25445-4.19336,1.62549-8.13964,2.30469-12.19842a5.87436,5.87436,0,0,0,.9986,2.8435c1.2323,1.62195,3.45855,2.14862,5.34356,2.416a21.27609,21.27609,0,0,0,4.134.52332,9.64212,9.64212,0,0,0,4.75763-1.63666,4.62068,4.62068,0,0,0,1.13891-.81287.19625.19625,0,0,0,.04328-.28162c-.0033-.00653-.00013-.01519-.00421-.0213a26.77182,26.77182,0,0,0-8.32831-8.03033A10.69735,10.69735,0,0,0,32.057,63.0138a12.658,12.658,0,0,1,.49646-2.49805,2.67505,2.67505,0,0,1,.53754-1.04834c.46118-.5282.88409-1.08978,1.38049-1.58636,2.512.14972,5.31927-.33619,6.71014,2.001a.25019.25019,0,0,0,.43177-.25232c-1.42646-2.39691-4.37946-2.07434-6.7746-2.178-1.64142-.071-3.92816-.60645-4.32941-2.52454-.46014-2.19971,1.99176-3.4242,3.55707-4.26764A28.60563,28.60563,0,0,0,45.97628,38.42163c.14514-.28637-.28607-.53973-.43176-.25238a28.22215,28.22215,0,0,1-5.84394,7.83216,27.64893,27.64893,0,0,1-3.97418,3.10418,45.67617,45.67617,0,0,0-4.14569,2.47046c-2.04455,1.647-2.13959,4.3714.28052,5.68848a5.40651,5.40651,0,0,0,1.98749.56189c-.413.45288-.796.93231-1.2027,1.391a2.915,2.915,0,0,0-.55585,1.10419,13.07,13.07,0,0,0-.51178,2.53424,3.18217,3.18217,0,0,0-2.25018.14715,11.8025,11.8025,0,0,0-3.44873,2.88733c-.142-4.26324-1.609-8.452-1.2735-12.74658.41809-5.35211,3.55853-10.32147,6.93286-14.34167a17.19636,17.19636,0,0,0,5.89984,2.16015c1.70368.17481,1.79248-1.20507,1.402-2.51587a9.93686,9.93686,0,0,0-7.24145-6.70953c1.51519-1.96033,4.4024.32178,6.05828.94763.7248.274,2.74872,1.03559,3.32111.12946.592-.9372-.84424-2.09015-1.46765-2.53662-.79315-.56806-1.71558-.95026-2.54944-1.45722A25.67827,25.67827,0,0,1,33.9042,26.639a10.04194,10.04194,0,0,1-2.45008-2.54028c-.93005-1.65271.24353-2.90088,1.4386-3.9328a47.44041,47.44041,0,0,1,5.8692-4.31714,48.52261,48.52261,0,0,1,12.5625-5.54907A34.12632,34.12632,0,0,1,57.96963,8.9856c2.09326-.15735,4.58148-.13983,6.20074,1.38721,3.02344,2.85132,3.09082,7.8266,2.83972,11.635a48.32431,48.32431,0,0,0-.28369,7.32141,44.29092,44.29092,0,0,0,1.41925,6.09692c.56769,2.4939-1.75537,3.8548-3.83636,4.395-2.4032.62378-4.85309.22412-7.29169.40069-1.644.119-3.43683.56257-4.40674,2.01764a4.50285,4.50285,0,0,0,.08643,4.704c2.38641,4.07727,8.06384,3.22016,12.08887,3.50531a11.83272,11.83272,0,0,0-2.36084,8.1634,16.61,16.61,0,0,0-3.22675,1.66229,9.48984,9.48984,0,0,0-3.90356,5.6289,24.60488,24.60488,0,0,0-.5354,3.84125,4.33822,4.33822,0,0,0,.63324,3.15674c1.21533,1.51318,3.516,1.31055,5.22485,1.10577.99841-.11962,2.03619-.27075,3.05926-.49C63.61007,73.79956,63.54623,74.0824,63.47775,74.36469ZM34.2261,64.76709a26.16877,26.16877,0,0,1,7.34179,7.24274q-.4561.35138-.93878.65881c-2.44183,1.202-5.44439-.43969-7.48376-1.96362A30.93419,30.93419,0,0,0,29.401,68.07587,25.22266,25.22266,0,0,1,26.093,66.397a13.84737,13.84737,0,0,1,3.11554-2.767C30.96969,62.61914,32.72262,63.78748,34.2261,64.76709Zm4.71039,8.78711a8.3993,8.3993,0,0,1-3.02631.64429A19.41109,19.41109,0,0,1,32.28725,73.7a12.57718,12.57718,0,0,1-2.31079-.43738,7.07727,7.07727,0,0,1-2.72528-1.63983c-1.044-1.15662-1.12683-3.05286-1.17938-4.61914,1.03815.6726,2.23828,1.023,3.318,1.63781,1.57367.89612,2.91736,2.12787,4.40809,3.14588A9.12916,9.12916,0,0,0,38.93649,73.5542ZM69.82827,56.16059A25.93478,25.93478,0,0,1,74.14156,54.793c-.18853,1.67542-1.26483,3.29987-1.92993,4.80194a10.87665,10.87665,0,0,0-.72693,1.99292,15.78464,15.78464,0,0,0-.1455,2.68152c-.1211,2.45276-.67035,4.923-2.6294,6.577a10.56016,10.56016,0,0,1-4.38086,2.02509c.18475-.82734.36408-1.656.55023-2.48176A113.98683,113.98683,0,0,1,68.97945,56.4925C69.26284,56.383,69.54391,56.26758,69.82827,56.16059Z"></path></svg>