<svg height='100px' width='100px'  fill="#000000" xmlns="http://www.w3.org/2000/svg" data-name="Layer 1" viewBox="0 0 100 100" x="0px" y="0px"><path d="M40.17506,21.97818c-1.2832.54626-2.52191,1.193-3.81475,1.71692-.29438.11926-.16565.60315.13293.48211,1.38983-.56323,2.715-1.27246,4.10223-1.84106q.88065.71622,1.82294,1.35419a5.83543,5.83543,0,0,1-.60925,1.54559,7.69187,7.69187,0,0,1-1.06476,1.488c-.21857.23572.13422.59015.35352.35358a8.245,8.245,0,0,0,1.14294-1.58917,6.50931,6.50931,0,0,0,.61609-1.5202,30.88243,30.88243,0,0,0,4.24,2.30236,3.3657,3.3657,0,0,1-.42523,1.32172,8.05028,8.05028,0,0,1-.87934,1.32617.25754.25754,0,0,0,0,.35358.25194.25194,0,0,0,.35358,0,8.60874,8.60874,0,0,0,.97907-1.46887,4.17383,4.17383,0,0,0,.45428-1.31726c.89539.38507,1.8009.74658,2.72284,1.05822.67438.228,1.39966.47681,2.15063.70288v3.3805a.25015.25015,0,0,0,.5,0V28.38632c2.06049.57806,4.27063.91656,6.15906.105a3.9454,3.9454,0,0,0,2.14551-5.50848c-1.29236-2.71308-4.32642-4.78626-6.85217-6.24628-.09967-.05762-.20612-.10278-.30652-.15906,3.14819-1.09442,5.79693-3.15191,6.74-6.45794a.25021.25021,0,0,0-.48212-.13294c-.96258,3.37439-3.76758,5.27728-6.94287,6.23547a25.586,25.586,0,0,0-7.80481-2.61456c-1.37842-.21832-4.22174-.90906-4.94177.87647-.73938,1.83355,2.40015,2.5003,3.50506,2.7232a19.876,19.876,0,0,0,9.25721-.42224c.24066.12891.48706.2467.72351.38336a19.08613,19.08613,0,0,1,6.06695,5.05341,3.95292,3.95292,0,0,1,.71411,3.97571,4.42558,4.42558,0,0,1-3.84735,2.24231c-2.50787.14929-5.2442-.84833-7.57586-1.70411C44.28932,24.8193,39.44991,21.673,36.34975,16.97159c-.17633-.26752-.60956-.01734-.4317.25231A22.55312,22.55312,0,0,0,40.17506,21.97818Zm7.65229-4.941c-1.0943.013-7.37506-.24079-6.70832-2.3274.58143-1.81951,4.91309-.55731,6.14612-.26879a25.29039,25.29039,0,0,1,5.463,1.97253A20.99258,20.99258,0,0,1,47.82735,17.03714Z"></path><path d="M80.39681,26.00412c-1.78815-2.4729-5.16718-3.05353-7.98658-2.36963a12.97971,12.97971,0,0,0-7.44946,5.526c-2.12347,3.17566-3.00159,7.01422-3.55457,10.73981-.44738,3.01428-.48181,9.01843-4.79321,9.0852-2.197.03406-4.15112-1.58191-5.70679-2.94891-.24084-.21167-.59582.14062-.35351.35351,2.06439,1.81415,5.09979,4.13721,7.94989,2.598,2.46167-1.32946,2.81573-4.60943,3.131-7.08227.51966-4.07544,1.22333-8.28229,3.36139-11.86353,1.88031-3.14959,5.15283-5.83514,8.91516-6.15185a6.93905,6.93905,0,0,1,5.63819,1.86743,7.32542,7.32542,0,0,1,1.68194,5.34155C81.09059,35.062,79.014,38.76706,76.60335,41.8016a87.0978,87.0978,0,0,1-8.00446,8.17847,44.15473,44.15473,0,0,0-6.78082,8.1059,4.46688,4.46688,0,0,0-2.16681-3.08332,4.19213,4.19213,0,0,0-2.26483-.58795c-1.07208.043-2.10925.68189-3.18732.5061-1.06366-.17346-1.92328-1.04779-2.95-1.4002a9.6461,9.6461,0,0,0-2.87061-.4607c-2.51538-.0672-5.01965.72876-7.522.29651l-.00281.00061a.60926.60926,0,0,0-.13122.02051.25382.25382,0,0,0-.06348.02344l-.0025.00287-.00769.009a.24667.24667,0,0,0-.0542.06366.21.21,0,0,0-.03967.07733l-.00135.0083a.20207.20207,0,0,0,.00593.07923.19059.19059,0,0,0,.0307.10717,17.05883,17.05883,0,0,0,9.18029,7.31415A14.076,14.076,0,0,0,60.96907,59.4429C57.278,65.71444,52.74043,74.575,44.01827,72.48874,35.83638,70.5317,32.504,61.73788,29.40761,54.888q-2.71444-6.00477-5.42883-12.00958-.65342-1.44562-1.307-2.89124a6.08047,6.08047,0,0,0-1.12732-2.04785,1.7743,1.7743,0,0,0-2.43793.11578c-1.06683.9422-.96655,2.35877-.58929,3.61609a40.67123,40.67123,0,0,1,1.657,6.18024,26.0598,26.0598,0,0,1,.03131,6.42785,11.30637,11.30637,0,0,0,.23,5.40387c1.10077,2.80616,4.08033,4.12708,6.53693,5.50141a24.93177,24.93177,0,0,1,8.27081,7.42206c2.186,3.11932,4.73645,7.82611,1.6283,11.18194-2.51837,2.71912-6.4502,3.01727-9.82684,3.87445A13.31457,13.31457,0,0,0,22.37,89.71066c-.25745.18768-.00824.6217.25238.43176,3.19891-2.33148,7.25482-2.19165,10.82477-3.59277,2.52746-.992,4.99463-2.81311,5.35412-5.69135C39.21675,77.53109,36.986,74.03463,35.057,71.51a25.68355,25.68355,0,0,0-7.98681-6.84357A23.84279,23.84279,0,0,1,22.618,61.87a6.53861,6.53861,0,0,1-2.10535-5.56024,61.12909,61.12909,0,0,0,.35712-6.41,24.691,24.691,0,0,0-1.05866-6.00214c-.28772-.9328-.70575-1.83508-.93225-2.785a3.10486,3.10486,0,0,1,.10492-2.12848,1.46944,1.46944,0,0,1,2.56024-.22662A20.07581,20.07581,0,0,1,22.84334,41.574q.70366,1.55676,1.40747,3.11359,2.76462,6.116,5.52936,12.232c2.9198,6.45929,6.377,14.06018,13.91461,16.00568,7.50848,1.93793,12.67755-4.44275,15.99054-10.21735A50.78559,50.78559,0,0,1,66.814,52.47061c2.76471-2.89172,5.84772-5.46558,8.537-8.43121a25.744,25.744,0,0,0,5.58648-8.86591C81.9139,32.27731,82.29433,28.62826,80.39681,26.00412ZM52.68514,54.8074a3.27121,3.27121,0,0,0,1.96411.64252c.936-.04016,1.8023-.498,2.73718-.53522A3.96325,3.96325,0,0,1,61.368,58.57254a17.08366,17.08366,0,0,0-4.59314-1.0022c-1.82569-.22223-3.66083-.33478-5.49213-.49634a24.388,24.388,0,0,1-5.15594-1.10992,15.1122,15.1122,0,0,1-4.544-2.01959C45.37026,54.261,49.15212,52.57181,52.68514,54.8074Zm-2.78168,5.77319a16.75431,16.75431,0,0,1-8.1247-5.91534,16.135,16.135,0,0,0,3.13916,1.41986,26.92534,26.92534,0,0,0,5.50891,1.3999c1.68665.22077,3.39679.27753,5.08936.44709a20.73516,20.73516,0,0,1,5.36957.97436A13.59557,13.59557,0,0,1,49.90346,60.58059Z"></path></svg>