<svg height='100px' width='100px'  fill="#000000" xmlns="http://www.w3.org/2000/svg" data-name="Layer 1" viewBox="0 0 100 100" x="0px" y="0px"><path d="M82.84152,43.02133A13.5555,13.5555,0,0,0,69.059,47.73184c-3.267,3.81445-5.16217,8.67426-8.8241,12.16949-.77795.74256-1.606,1.44056-2.44952,2.12287,4.49268-11.20172,5.8053-23.3739,5.89313-35.36774.02813-3.84289-.069-7.6839-.22174-11.52319q6.54465-2.04465,12.88849-4.67517c.2929-.12158.16442-.60559-.13294-.48212q-6.28042,2.608-12.77893,4.62952c-.13031-3.16431-.29309-6.32746-.46643-9.489-.01758-.32-.5177-.32208-.5,0,.17584,3.20691.34967,6.42334.48389,9.6435-1.96778.60907-3.944,1.191-5.93665,1.71637q-4.78966,1.26259-9.65631,2.204c-2.99249.57812-6.185.81756-9.0271,1.97827a7.60292,7.60292,0,0,0-4.43616,4.189,12.8574,12.8574,0,0,0-.372,6.6745v.00012c-.66815.05268-1.33685.10291-1.99884.18354-2.259.2752-4.54553,1.15967-5.27319,3.52795-.88367,2.876.70618,5.89,1.61237,8.549a12.53582,12.53582,0,0,1,.83435,4.56348,17.65405,17.65405,0,0,1-1.58283,5.65338c-.444,1.1134-1.04632,2.4245-.38312,3.5813a3.143,3.143,0,0,0,2.3639,1.38135c1.11608.16046,2.27179.48468,1.84814,1.94488-.28119.969-1.15216,1.27222-1.96265,1.68793-.78473.40246-1.84448,1.11712-1.72058,2.14154.105.86865.98358,1.16052,1.6377,1.5274.75812.42524.85327,1.16608-.01386,1.55768-.43652.19708-.91961.278-1.356.47876a1.51756,1.51756,0,0,0-1.04175,1.16052c-.0943.93708.86242,1.3462,1.52118,1.75238,2.687,1.65656-.04731,4.53425.60437,6.91974.58307,2.13434,3.14569,2.267,4.843,1.49506a28.8184,28.8184,0,0,0,4.28351-2.85315Q40,75.198,42.28543,73.65542c2.92487-1.9859,5.85925-3.95843,8.74475-6.00146,1.85565-1.31384,3.73505-2.65118,5.557-4.05383a155.32956,155.32956,0,0,1-8.942,16.39184,105.16664,105.16664,0,0,0-5.12738,9.40137c-1.20386,2.62653-2.1037,5.67908-.59509,8.36688a.25019.25019,0,0,0,.43176-.25232c-1.75842-3.13281-.01709-6.72766,1.45392-9.60534,1.46716-2.8703,3.08594-5.65931,4.72595-8.43335a139.19643,139.19643,0,0,0,8.77106-16.25434c.036-.0849.06763-.17108.10327-.2561,1.00324-.79529,1.99-1.60742,2.92566-2.46558a33.00437,33.00437,0,0,0,5.31866-7.002,30.93277,30.93277,0,0,1,5.705-7.36951,12.65047,12.65047,0,0,1,11.35065-2.61822C83.02152,43.57718,83.15506,43.09518,82.84152,43.02133ZM44.70444,71.412c-2.78943,1.89373-5.58765,3.77514-8.34241,5.71917a13.30306,13.30306,0,0,1-3.84186,2.3208c-1.83172.50129-3.65252-.46405-3.49591-2.50634.12726-1.65924,1.4729-3.86457.24256-5.38752-.55628-.68847-3.15961-1.56909-1.86567-2.63378.61567-.50666,1.583-.42914,2.2212-.92225,1.257-.97113-.022-1.91327-.9405-2.40112-2.49957-1.32751.97834-2.631,1.76886-3.21973a2.34491,2.34491,0,0,0,1.08747-2.25293A1.84644,1.84644,0,0,0,30.25412,58.61c-.44965-.13366-.93988-.08636-1.39526-.18762a2.16354,2.16354,0,0,1-1.82965-2.71881c.33227-1.4502,1.10412-2.80328,1.54956-4.22552a11.16072,11.16072,0,0,0,.58722-4.33069c-.23877-2.75165-1.61225-5.22345-2.31385-7.85981a6.18281,6.18281,0,0,1,.32361-4.898c.9364-1.47656,2.7113-1.97894,4.348-2.18377.69147-.08655,1.39014-.141,2.08857-.19568a7.72869,7.72869,0,0,0,2.89434,5.14044c2.37232,1.65057,5.01691.5694,7.5683.07068,1.39734-.27313,3.57959-.24091,4.70484.8208-.25226.0567-.5058.11261-.75446.17224q-5.76279,1.38254-11.5257,2.765a.25185.25185,0,0,0-.11029.41784c1.86976,1.71973,4.37976,1.97821,6.82074,1.89929,1.92676-.06225,4.45618-.12127,5.94147-1.55749a2.64492,2.64492,0,0,0,.39539-3.35431c1.94421-.4295,4.08984-.97565,5.296-2.53442,1.42474-1.84125.118-4.045-1.84973-4.74115a12.14256,12.14256,0,0,0-4.59711-.24756q-2.9166.13668-5.83313.27325c-2.825.13239-5.70264.14246-8.54242.3418-.00476-.02911-.01129-.05817-.01587-.08734-.40228-2.57343-.47436-5.53253,1.10217-7.754,1.93842-2.73132,5.6496-3.28894,8.71558-3.81171,3.39587-.579,6.77234-1.25482,10.12256-2.05847q4.55383-1.09231,9.02679-2.47864c.39142,9.71552.39984,19.46271-1.037,29.08667a76.94365,76.94365,0,0,1-4.92908,18.27387c-1.431,1.11688-2.90729,2.18225-4.35858,3.2359C50.03647,67.77823,47.37338,69.60007,44.70444,71.412ZM49.50711,39.7828c.01831,1.73542-1.88995,2.45887-3.30322,2.73694-.62671.12329-1.30512.2179-1.99927.28406a2.3167,2.3167,0,0,0,.78125-1.36542,1.7545,1.7545,0,0,0-.26569-1.33679,1.23145,1.23145,0,0,0-.61212-.43365q2.02515-.48588,4.05024-.97162c.31488-.0755.64727-.14868.98651-.22278A2.44343,2.44343,0,0,1,49.50711,39.7828Zm-5.8938,2.82734a1.33317,1.33317,0,0,1-1.45947-.07636,1.18509,1.18509,0,0,1-.47315-1.37451A1.85907,1.85907,0,0,1,43.33408,40.11a.237.237,0,0,0,.14428-.07586.28876.28876,0,0,0,.21625.06.72437.72437,0,0,1,.66632.36512,1.30284,1.30284,0,0,1,.13495.89312A1.82342,1.82342,0,0,1,43.61331,42.61014Zm-2.33087-1.78327a1.65732,1.65732,0,0,0,.41962,1.98218c.02093.01843.0462.02716.06762.04456a8.316,8.316,0,0,1-4.62793-1.51441L41.761,40.23105A1.82848,1.82848,0,0,0,41.28244,40.82687Zm7.26331-3.5426c-2.59717-1.83234-5.78986.09216-8.55469.26916-3.47925.22278-5.26447-2.59137-5.88184-5.5899,2.81031-.19519,5.659-.19788,8.4538-.32886q2.9166-.13659,5.83313-.27325c1.93237-.09052,4.40051-.44629,5.87134,1.12921,1.58191,1.69458.16253,3.47595-1.45966,4.305a15.0686,15.0686,0,0,1-3.57635,1.14319A3.548,3.548,0,0,0,48.54575,37.28427Z"></path><path d="M55.41837,50.0256a.24455.24455,0,0,0-.08942-.17975.23045.23045,0,0,0-.042-.02038.23917.23917,0,0,0-.12958-.04419.23039.23039,0,0,0-.182.07349c-2.09033,1.93322-5,3.0614-7.52911,4.28845-2.60577,1.26416-5.44116,2.71917-6.88147,5.36847a5.22649,5.22649,0,0,0-.44629,4.482,2.75,2.75,0,0,0,2.74017,1.81482,4.1,4.1,0,0,0,1.63239-.60376c.86975-.48144,1.77228-.89447,2.66962-1.321a17.08944,17.08944,0,0,0,4.48742-2.90271C54.52744,58.2695,55.7366,53.901,55.41837,50.0256Zm-3.204,9.63367c-2.1626,2.57446-5.31519,3.73059-8.21057,5.24841a2.34387,2.34387,0,0,1-3.5766-1.53088,5.426,5.426,0,0,1,1.28466-4.68408c1.67762-2.08588,4.1709-3.23969,6.52539-4.37848a31.41357,31.41357,0,0,0,6.70118-3.77484A13.64763,13.64763,0,0,1,52.21439,59.65927Z"></path></svg>