<svg height='100px' width='100px'  fill="#000000" xmlns="http://www.w3.org/2000/svg" data-name="Layer 1" viewBox="0 0 100 100" x="0px" y="0px"><path d="M89.96519,42.99234c-1.11213-2.9215-4.275-4.43756-7.06922-5.316A36.57337,36.57337,0,0,0,69.73484,36.07a2.63113,2.63113,0,0,0-2.41321,1.16846c-.96722-.11176-1.93481-.20111-2.90124-.21991a9.56711,9.56711,0,0,0-6.43134,1.893,9.10315,9.10315,0,0,0-3.00818,5.46985,37.78469,37.78469,0,0,0-.197,6.86353,8.131,8.131,0,0,1-1.0556,4.41461c-.70874,1.09631-2.60242,2.74609-4.0127,2.25177-.82763-.2901-.91613-1.44415-1.7735-1.84784-1.26928-.59772-2.50573.6189-3.81158.31751-3.841-.8866-2.50061-6.15967-1.16809-8.49689,1.48627-2.60687,3.84839-4.55469,6.16388-6.398a34.80421,34.80421,0,0,1,7.6781-4.851c1.286-.55866,2.645-.91034,3.93976-1.44654A27.411,27.411,0,0,0,64.801,33.01218c2.40314-1.50482,5.15778-2.20618,7.4856-3.87744,3.61187-2.593,7.09338-6.9148,7.37414-11.52655a5.03755,5.03755,0,0,0-2.224-4.886c-2.1817-1.2547-5.27752-.84875-7.68206-.83142-5.58869.04022-11.00562.81171-15.91687,3.62329a33.36384,33.36384,0,0,0-10.59235,9.94342c-6.65466,9.52039-8.449,21.36591-9.40711,32.68207-.49578,5.85669-.68493,11.834-2.39007,17.50116-1.527,5.075-5.22608,12.35773-11.50964,12.05615-6.96778-.33447-9.4748-8.30365-9.76209-14.07318A29.20118,29.20118,0,0,1,14.671,56.53452c1.518-2.36188,3.733-4.72986,6.75323-4.68121a.25015.25015,0,0,0,0-.5c-4.81561-.07752-7.73254,5.2539-9.36743,9.0744A29.77992,29.77992,0,0,0,9.9174,76.16813c.66375,4.75628,2.83923,9.85144,7.70935,11.56567,4.811,1.69348,9.00561-1.64533,11.45269-5.53607C31.84531,77.8,32.92887,72.61692,33.52463,67.523c.69764-5.96539.89582-11.97271,1.75184-17.92333C36.85441,38.631,40.40659,27.5333,48.79209,19.841A27.17088,27.17088,0,0,1,62.8,12.872a56.41033,56.41033,0,0,1,9.545-.472c2.81933.02777,6.13739.22033,6.74194,3.61474.46851,2.631-.75,5.34284-2.13342,7.506a19.16392,19.16392,0,0,1-5.87616,5.8288,25.48344,25.48344,0,0,1-3.91284,1.91077,28.85986,28.85986,0,0,0-3.68415,1.99719c-2.4403,1.45575-5.16491,2.08319-7.70282,3.30072a36.76524,36.76524,0,0,0-6.83435,4.43933,28.73167,28.73167,0,0,0-5.53857,5.29541,10.41167,10.41167,0,0,0-2.29047,6.751c.152,1.81567,1.32666,3.70233,3.29328,3.88836,1.439.13611,2.97509-1.31408,4.02728.31763.34833.54028.54394,1.25623,1.26916,1.33045,1.74457.1784,3.73462-1.45258,4.55634-2.83777,1.20953-2.03907,1.02008-4.42768.947-6.698a15.25852,15.25852,0,0,1,1.08948-7.17011C58.415,37.51,62.87144,37.235,67.20029,37.72464a2.21656,2.21656,0,0,0-.00042.49579c.184,1.59741,1.79657,2.24628,3.1792,2.50452,4.287.8006,10.77215.00549,12.94055,4.78339Q78.49946,44.4422,73.67936,43.376l-4.58747-1.01477c-1.27355-.28168-2.74108-.78522-4.05859-.45a2.14719,2.14719,0,0,0-1.0224,3.79107c1.77533,1.6922,4.61157,2.72321,6.91492,3.43946a25.285,25.285,0,0,0,8.46307,1.12445c2.33783-.09143,4.9112-.52527,6.68793-2.18128a5.09148,5.09148,0,0,0,1.49731-5.39575c-.78729-1.96631-2.93213-2.75854-4.85125-3.14807-3.04847-.61871-6.1814-.93793-9.25879-1.38867-1.79865-.26343-3.61762-.58722-5.44068-.82587a1.65492,1.65492,0,0,1,1.17627-.71033,32.64741,32.64741,0,0,1,12.22272,1.153c3.07922.83063,6.94135,2.21539,8.11621,5.5144.7923,2.22473-.08429,4.58429-1.03631,6.60718-.75312,1.60016-1.57459,3.17188-2.41864,4.72565a86.69806,86.69806,0,0,1-5.77875,9.27942,54.30035,54.30035,0,0,1-15.82062,15.08c-7.15143,4.29181-15.58539,6.58161-23.923,5.42371-.3147-.0437-.45075.438-.13294.48218C56.694,87.14054,71.302,77.10141,80.49058,64.48807a87.828,87.828,0,0,0,6.62091-10.73242C88.75266,50.64737,91.35,46.63028,89.96519,42.99234Zm-15.6944,1.02594q1.78921.39579,3.57837.79151a4.41894,4.41894,0,0,1-1.04822,3.08154,4.02878,4.02878,0,0,1-3.022,1.29334,2.70262,2.70262,0,0,1-1.53675-.4488,1.96283,1.96283,0,0,1-.71551-1.54095c-.09137-1.25964-.06854-2.53735-.08447-3.80231Zm-10.1886-1.01074c1.19824-1.35962,3.63361-.43921,5.11823-.11078q.87111.19272,1.7423.38538c.02088,1.21094.02771,2.42352.07013,3.63379a3.04947,3.04947,0,0,0,.608,1.908c-.04773-.01367-.09644-.02484-.14411-.03876C69.89683,48.32358,61.8104,45.5853,64.08219,43.00754Zm8.26373-4.51733c3.12561.45782,6.26154.8714,9.37964,1.37793,2.51111.4079,5.82562,1.41443,5.62134,4.5874-.22809,3.54291-3.91211,4.963-6.93622,5.24786a22.96541,22.96541,0,0,1-5.4458-.16046A4.554,4.554,0,0,0,77.419,47.91739a4.96954,4.96954,0,0,0,.926-2.99792q2.671.59088,5.34216,1.1817c.17.03766.37848-.11743.30756-.3075-.971-2.60083-3.47046-4.065-6.077-4.65252a47.57886,47.57886,0,0,0-5.66119-.66345,11.18113,11.18113,0,0,1-2.94916-.56275,2.40062,2.40062,0,0,1-1.33881-1.07287,1.42567,1.42567,0,0,1-.15521-1.04474C69.398,38.00132,70.95011,38.28574,72.34592,38.49021Z"></path><path d="M44.21043,73.60038a11.156,11.156,0,0,0,9.93469-1.75867c.00787-.00568.00628-.01489.01343-.02094a.1998.1998,0,0,0,.087-.13519c.00366-.01355.01367-.02411.01489-.038.00049-.0091.00891-.01209.00855-.02173-.11945-3.04047-2.29-5.74249-4.58954-7.54944a9.90051,9.90051,0,0,0-8.48462-1.84412,4.25856,4.25856,0,0,0-3.05731,2.16223A5.23471,5.23471,0,0,0,38.45963,68.32,9.57222,9.57222,0,0,0,44.21043,73.60038Zm-3.34729-10.754a9.319,9.319,0,0,1,7.8153,1.11621c2.29547,1.50946,4.54889,4.10376,4.99359,6.92493a15.17822,15.17822,0,0,0-6.51873-3.46564c-2.81348-.86731-6.04132-1.12543-8.32294-3.14429A3.665,3.665,0,0,1,40.86314,62.84641ZM38.39854,66.103a3.00066,3.00066,0,0,1,.19866-1.36993c2.11677,1.80127,4.87165,2.1438,7.48047,2.88971,2.7472.7854,5.60834,1.77227,7.555,3.958-4.37574,2.983-10.65357,2.71076-13.85138-1.88269A7.50075,7.50075,0,0,1,38.39854,66.103Z"></path></svg>