<svg height='100px' width='100px'  fill="#000000" xmlns="http://www.w3.org/2000/svg" data-name="Layer 1" viewBox="0 0 100 100" x="0px" y="0px"><path d="M87.351,24.70655c-1.31793-.20606-2.63647-.40906-3.95819-.58966q-.62749-.08579-1.259-.16431a5.71774,5.71774,0,0,0-1.72156-4.68512c-1.818-1.87952-4.43658-2.738-6.86572-3.51A37.02216,37.02216,0,0,0,65.145,13.9906c-4.75018-.35705-9.86914.76325-13.31341,4.25806a10.04408,10.04408,0,0,0-2.88691,6.08893,14.91345,14.91345,0,0,0,1.636,7.81451,53.38694,53.38694,0,0,0,4.30908,6.976c1.36237,1.995,2.74793,3.97552,4.23761,5.87829a35.09077,35.09077,0,0,0,10.78974,9.64612c.89685.47906,2.10522,1.139,2.46148,2.16583.46106,1.32886-1.52954,1.70978-2.39,1.9978q-4.30663,1.44141-8.61334,2.88282c-.32471.1087-.18463.6242.142.51489L65.541,60.86707q2.07477-.69442,4.14953-1.38879c.62226-.20826,1.25867-.39362,1.86835-.63685a2.28987,2.28987,0,0,0,1.22839-.941,1.99725,1.99725,0,0,0-.65454-2.35449A13.1403,13.1403,0,0,0,69.33314,53.714,36.50369,36.50369,0,0,1,59.0868,44.0885c-1.42114-1.85644-2.74994-3.78118-4.06543-5.71319a47.73793,47.73793,0,0,1-4.10821-6.76679,13.774,13.774,0,0,1-1.369-7.78369,9.65494,9.65494,0,0,1,3.18616-5.69531c3.64843-3.2724,8.76019-4.04938,13.47979-3.50293a40.35811,40.35811,0,0,1,8.08814,1.937c2.34112.78113,4.881,1.75318,6.3725,3.83875a4.876,4.876,0,0,1,.98694,3.18731c-.00763.1009-.022.20057-.03711.3-4.82459-.57818-9.77454-.77984-14.49866.4903-2.22016.59692-4.59625,1.49908-6.0362,3.39428a3.399,3.399,0,0,0,.90406,5.21143c2.26782,1.473,5.07153.8042,7.44531-.01324a48.00976,48.00976,0,0,0,7.60449-3.26893c1.8609-1.02948,3.82782-2.4176,4.719-4.42309a4.93224,4.93224,0,0,0,.27929-.81018c1.73163.21771,3.4571.48315,5.17127.75122C87.54579,25.27411,87.68953,24.75946,87.351,24.70655ZM80.4731,26.3465a15.17119,15.17119,0,0,1-5.51966,3.8103q-1.89916.89557-3.86163,1.64661a28.803,28.803,0,0,1-3.9552,1.28961,7.05405,7.05405,0,0,1-3.79218-.04425,3.777,3.777,0,0,1-2.38934-2.04388c-.83344-2.1731,1.33911-4.0011,3.03369-4.90326a15.80678,15.80678,0,0,1,3.4469-1.25226,26.11536,26.11536,0,0,1,3.89246-.69733,45.7436,45.7436,0,0,1,10.18121.2533A5.49153,5.49153,0,0,1,80.4731,26.3465Z"></path><path d="M84.76039,67.4184a.24728.24728,0,0,0-.03-.02252.24311.24311,0,0,0-.15985-.058c-3.15235.00562-6.29669-.03912-9.44049-.28674-2.33393-.1839-4.967-.20856-6.759,1.54895a4.42333,4.42333,0,0,0-.89666,1.27106,2.50913,2.50913,0,0,1-.51667.88324,1.21955,1.21955,0,0,1-.76776.158c-.5321.00549-1.06274-.01905-1.59485.00586a7.84875,7.84875,0,0,0-3.21484.74829,6.79452,6.79452,0,0,0-2.441,2.40344,17.87561,17.87561,0,0,0-2.87268,6.54352,6.45913,6.45913,0,0,1-2.96912.18951,10.535,10.535,0,0,1-3.518-1.51568,67.23465,67.23465,0,0,1-6.21485-4.46875q-3.0085-2.37837-5.81079-5.00306Q34.74183,67.184,32.15,64.32947a74.304,74.304,0,0,1-4.87066-5.81775,26.17168,26.17168,0,0,1-5.04694-11.94623,41.74588,41.74588,0,0,0,6.26453-.66766v5.8103a.26716.26716,0,0,0,.534,0V45.79639q1.43426-.29031,2.84716-.70123.51792-.15162,1.03058-.32062.909,2.94964,1.81806,5.89923c.10107.32788.61633.18713.51489-.142L33.4142,44.6023a35.76292,35.76292,0,0,0,4.16546-1.73663,58.1324,58.1324,0,0,0,2.76172,6.12792c.154.30762.61444.03693.46106-.26953a56.16006,56.16006,0,0,1-2.745-6.09985c.39306-.201.78387-.40637,1.16937-.62122a18.00612,18.00612,0,0,0,1.5401-.95556l.001.00079a23.596,23.596,0,0,0,5.998,3.41608c.32715.10937.46619-.4065.14191-.51489a22.35262,22.35262,0,0,1-5.68646-3.23285,7.33174,7.33174,0,0,0,2.90875-4.10187,4.83132,4.83132,0,0,0-.35486-3.31629,5.80233,5.80233,0,0,0-2.173-2.23327,11.33693,11.33693,0,0,0-6.1275-1.48474,14.49347,14.49347,0,0,0-11.0224,5.60675,15.22306,15.22306,0,0,0-2.8056,10.86615,67.26089,67.26089,0,0,1-8.93634-.4895c-.34143-.03888-.33753.49554,0,.534,1.30334.14844,2.60937.27374,3.91821.3617,1.68726.1134,3.38135.1593,5.07172.1206q.10656.86362.28772,1.717a26.19471,26.19471,0,0,0,2.41949,6.61145,34.01823,34.01823,0,0,0,3.89612,5.76367A95.43335,95.43335,0,0,0,39.41548,72.22156q2.97546,2.60825,6.16827,4.9538c1.07923.7923,2.17182,1.57232,3.29584,2.30011a12.97158,12.97158,0,0,0,3.48382,1.70215,6.9983,6.9983,0,0,0,3.87049-.05249l.00464-.00147A22.79348,22.79348,0,0,0,64.09071,85.254a17.04569,17.04569,0,0,0,7.81873.59961,13.33134,13.33134,0,0,0,6.649-3.55829,20.37264,20.37264,0,0,0,6.279-14.69049.249.249,0,0,0-.0708-.179ZM22.7906,39.47705a13.37676,13.37676,0,0,1,3.45715-5.49816,13.75493,13.75493,0,0,1,11.454-3.71918c2.01453.3222,4.27057,1.1488,5.41089,2.95465,1.36939,2.16858.29883,4.81879-1.42035,6.42938a14.89721,14.89721,0,0,1-3.18347,2.14368,35.59827,35.59827,0,0,1-3.59253,1.68994,35.06756,35.06756,0,0,1-7.20025,2.02789,40.45573,40.45573,0,0,1-5.54749.53644A15.92922,15.92922,0,0,1,22.7906,39.47705ZM59.96339,73.5564a5.168,5.168,0,0,1,2.838-1.85376,12.78953,12.78953,0,0,1,3.26258-.2561,1.57631,1.57631,0,0,0,1.492-.58051c.23175-.34344.36316-.7431.57147-1.09961A4.00026,4.00026,0,0,1,69.2339,68.5661c2.07074-1.506,4.80639-1.04229,7.18689-.88214,2.31775.156,4.64111.18586,6.96362.1883q-1.41321.66924-2.82635,1.33856Q72.70576,72.9297,64.85341,76.6485q-1.97114.93357-3.94233,1.86707c-1.28344.60785-2.55633,1.27063-3.88379,1.7782-.12616.04821-.25341.09277-.38086.13671A17.23433,17.23433,0,0,1,59.96339,73.5564ZM82.2353,76.404c-2.19446,4.45446-6.24774,8.54864-11.39752,9.06445a17.77513,17.77513,0,0,1-7.537-1.0293,22.17988,22.17988,0,0,1-6.4544-3.51141A33.29172,33.29172,0,0,0,60.08192,79.497q4.10385-1.94357,8.20776-3.88721L84.29646,68.029A20.09267,20.09267,0,0,1,82.2353,76.404Z"></path></svg>