<svg height='100px' width='100px'  fill="#000000" xmlns="http://www.w3.org/2000/svg" data-name="Layer 1" viewBox="0 0 100 100" x="0px" y="0px">
  <path d="M76.76381,46.96437c-3.166-4.04974-3.94251-9.16705-4.2956-14.15576-.48138-6.80182.39-18.067-7.6029-20.90344a10.1016,10.1016,0,0,0-10.04273,1.71356,10.03354,10.03354,0,0,0-2.92547,4.77191,11.23939,11.23939,0,0,0,.20465,5.91626,6.38243,6.38243,0,0,1,.02057,4.33753A6.24365,6.24365,0,0,1,49.55641,31.215a27.49882,27.49882,0,0,1-7.21307,2.63251,49.21281,49.21281,0,0,1-11.62012,1.53394,13.92192,13.92192,0,0,0,.289-6.77942,11.38572,11.38572,0,0,0-6.98193-8.46985c-3.79486-1.34729-8.434.12012-10.19281,3.88342-1.80646,3.86505.27691,7.83637,3.83624,9.74085a19.2497,19.2497,0,0,0,7.01355,1.83941,48.69628,48.69628,0,0,0,5.24774.28852A23.27433,23.27433,0,0,1,22.22414,46.156a62.28116,62.28116,0,0,1-6.28986,4.35578c-.2724.17-.02167.60272.25238.43176C21.80641,47.43685,28.39955,42.413,30.5674,35.887c.82025-.00781,1.64032-.02948,2.45916-.07782a45.4172,45.4172,0,0,0,15.1587-3.34656A8.197,8.197,0,0,0,52.554,28.89681c.98541-2.03772.07642-4.1369-.32391-6.19275a9.20348,9.20348,0,0,1,7.16406-10.76459,10.30743,10.30743,0,0,1,6.64093,1.02631,9.237,9.237,0,0,1,4.1145,5.30481c3.08508,8.7456.06354,18.86688,4.9364,27.13574,1.24561,2.11383,3.18561,3.74853,4.31739,5.92737,1.04052,2.00329,1.00854,5.62408-1.77643,6.16668-.857.167-1.84314-.07183-2.6095.4621a2.22534,2.22534,0,0,0-.8457,1.79157,13.78111,13.78111,0,0,0,.3645,2.91247q.13056.8041.23248,1.61371a3.50552,3.50552,0,0,0-.86029.163c-2.583.83014-4.3454,3.2696-7.07617,3.76673a.26583.26583,0,0,0-.11035.41784,27.40869,27.40869,0,0,0,6.32312,3.65949c.20135.09149.41058.1925.62274.29205a6.83988,6.83988,0,0,0-.65094,1.79712c-.37567,2.11328,1.26245,4.17676.51581,6.24872-.9195,2.55164-4.58,2.21118-6.69824,1.90533-5.52112-.79724-10.58851-3.17388-15.7118-5.23266-4.27411-1.71753-9.29876-2.81165-13.46515-.22016-3.20806,1.99543-5.22491,5.33216-7.84106,7.966A11.56014,11.56014,0,0,1,24.804,88.22707a.2502.2502,0,0,0,.13293.48212c3.463-.98169,5.75837-3.78852,7.99567-6.42823,2.91248-3.4364,6.00281-6.42315,10.846-6.2644,3.7287.12225,7.097,1.74676,10.47552,3.15008a73.69265,73.69265,0,0,0,7.89814,2.823c3.06085.87927,11.53625,3.23725,12.04547-2.1062a7.618,7.618,0,0,0-.36817-2.63519,5.8041,5.8041,0,0,1,.1615-4.2016c.0409-.09088.08661-.17975.12976-.26972a3.61136,3.61136,0,0,0,.8783.25525,2.62437,2.62437,0,0,0,2.83978-1.19726c.61273-1.40192-.32214-2.705-1.15387-3.78314a2.30457,2.30457,0,0,0,.11951-2.90393,2.21012,2.21012,0,0,0-1.53833-.85138c-.03748-.29725-.069-.59522-.11237-.89154-.18609-1.27057-.73205-2.81061-.43158-4.08991.37861-1.61212,2.16565-1.05,3.337-1.38391a3.128,3.128,0,0,0,1.62463-1.1651C82.30928,53.25777,78.83925,49.61916,76.76381,46.96437Zm-46.226-13.39459a15.852,15.852,0,0,1-.44,1.82361q-2.13044,0-4.25616-.18323c-4.79822-.41937-12.28614-2.01495-12.196-8.2467.08356-5.77747,6.82135-8.30432,11.45032-5.815C29.51875,23.52687,31.38765,28.79677,30.53779,33.56978ZM73.89491,72.11721c-.03784-.01624-.07416-.0279-.1123-.04468a30.807,30.807,0,0,1-6.00116-3.27777c2.34521.32263,4.83532.72247,7.12823.09259a7.93359,7.93359,0,0,1-.66174,2.51129C74.13606,71.63954,74.01558,71.87819,73.89491,72.11721Zm2.01434-7.12061a1.83657,1.83657,0,0,1,.30579,2.8562,6.62869,6.62869,0,0,1-.73175.32184c.0152-.45807.0163-.91541.0022-1.36029-.02155-.67792-.082-1.35315-.15735-2.027A1.64845,1.64845,0,0,1,75.90925,64.9966Zm-.451,3.73529a7.29,7.29,0,0,0,.83954-.372,5.775,5.775,0,0,1,1.16791,1.971,1.6372,1.6372,0,0,1-.93933,2.05853,3.09163,3.09163,0,0,1-2.17316-.09,11.55034,11.55034,0,0,0,.793-1.79883A8.16647,8.16647,0,0,0,75.4582,68.73189Zm-.46331-1.47308c.00348.3728-.00519.74017-.0282,1.10339-2.17908.66925-4.58276.30316-6.83533-.01807a32.71546,32.71546,0,0,0,4.46729-2.7279,5.407,5.407,0,0,1,2.22967-.85736A24.13984,24.13984,0,0,1,74.99489,67.25881Z"></path><path d="M71.511,35.513c-.00079-.99591.04675-2.3938-1.28839-2.42517a5.527,5.527,0,0,0-2.07709.63293c-.90326.36609-1.80572.73413-2.71258,1.09125a43.32082,43.32082,0,0,1-5.39679,1.84955c-1.9466.4826-3.94232.72754-5.90564,1.12933-.25482.05212-.22022.41174,0,.48212a18.6942,18.6942,0,0,0,2.5578.48181c.88617.15283,1.767.3244,2.65954.43909a35.12415,35.12415,0,0,0,6.12891.16217,11.47933,11.47933,0,0,0,4.26318-.66651A3.22648,3.22648,0,0,0,71.511,35.513Zm-3.09473,3.071a24.64793,24.64793,0,0,1-4.57971.32074,31.45821,31.45821,0,0,1-5.04-.28882c-1.13226-.16925-2.34338-.29693-3.48968-.55017a52.817,52.817,0,0,0,8.134-1.96319c1.42474-.51825,2.83069-1.08606,4.2356-1.65546a17.08986,17.08986,0,0,1,1.93817-.76086c.64428-.17255,1.28906.003,1.37072.77166A10.15227,10.15227,0,0,1,71.011,35.513a3.01644,3.01644,0,0,1-.78461,2.28228A3.79368,3.79368,0,0,1,68.41627,38.584Z"></path><path d="M70.31258,41.97023c.10437-.30511-.37842-.43609-.48218-.13293-.54724,1.59949-2.36652,2.29156-3.93817,2.24707a11.62755,11.62755,0,0,1-3.0506-.61414A6.06012,6.06012,0,0,1,60.11592,42.297c-.22491-.23083-.57831.12287-.35352.35358a4.08177,4.08177,0,0,0,1.83863.97388,3.29544,3.29544,0,0,1-1.90973,2.38812.25151.25151,0,0,0-.08966.342.25654.25654,0,0,0,.342.08966,3.75406,3.75406,0,0,0,2.13952-2.67352c.18073.05078.36207.10059.54.1554a15.5144,15.5144,0,0,0,2.42078.58062,2.24029,2.24029,0,0,1-1.00854,2.28107.2502.2502,0,0,0,.25238.43176,2.751,2.751,0,0,0,1.26965-2.66205c.212.01514.42377.03345.6369.028a5.42118,5.42118,0,0,0,1.77722-.35242,5.96488,5.96488,0,0,0,1.29511,2.428.25.25,0,0,0,.35357-.35357A5.42724,5.42724,0,0,1,68.43086,44.026,3.64787,3.64787,0,0,0,70.31258,41.97023Z"></path><path d="M42.927,49.4504c-1.155-2.47388-3.46026-3.12763-5.86993-1.86408a7.69484,7.69484,0,0,0-4.01752,6.394c-.11737,2.89808,1.41828,5.05506,3.50031,6.88013a7.60677,7.60677,0,0,1,2.68878,4.08923A6.38876,6.38876,0,0,0,40.8025,68.3348a7.10786,7.10786,0,0,0,3.03229,1.436c1.924.52045,3.87891.94373,5.81629,1.41162,1.59191.3844,3.19873.89166,4.82031,1.1225a3.40351,3.40351,0,0,0,2.95331-.67621c.90307-.87146,1.043-2.25342,1.21222-3.42474a25.92909,25.92909,0,0,0,.37042-5.45783,9.06214,9.06214,0,0,0-3.17755-6.78149C52.08131,53.14345,45.12794,54.18471,42.927,49.4504Zm12.9701,7.20636c2.12726,1.85437,2.69629,4.87225,2.63769,7.5628a31.55074,31.55074,0,0,1-.504,4.68012c-.30439,1.75195-1.10193,3.122-3.11841,2.95929a28.07412,28.07412,0,0,1-4.19989-.93451l-4.6424-1.12116a19.27706,19.27706,0,0,1-3.77447-1.09,4.68161,4.68161,0,0,1-2.49634-3.53186,8.08574,8.08574,0,0,0-1.08374-2.80432A14.67536,14.67536,0,0,0,36.335,60.02053c-2.52057-2.25281-3.63819-5.70917-2.06018-8.86542A6.96214,6.96214,0,0,1,37.986,47.71578a3.335,3.335,0,0,1,4.50921,1.98694c1.45856,3.13726,5.139,3.80157,8.15412,4.61962A12.92127,12.92127,0,0,1,55.89705,56.65676Z">
  </path>
</svg>