<svg height='100px' width='100px'  fill="#000000" xmlns="http://www.w3.org/2000/svg" data-name="Layer 1" viewBox="0 0 100 100" x="0px" y="0px"><path d="M86.70092,21.90056c-1.10406-3.62268-3.82037-7.77026-8.13428-7.21252a22.63835,22.63835,0,0,0-6.20648,2.2185c-.2127.097-.41693.21137-.62848.31073C71.1361,11.685,65.88983,8.0747,60.64184,7.58733A24.15285,24.15285,0,0,0,49.99255,9.42388c-3.74347,1.41485-7.29529,3.481-11.41425,2.27862-3.49176-1.01928-6.39636-3.50561-9.98858-4.24743-1.78382-.36835-4.29444-.50763-5.7771.79156-2.52973,2.21674-.31317,6.76789.76367,9.15906,2.79114,6.19818,6.51208,12.80493,5.8371,19.81836-.21-.18921-.42188-.37543-.64075-.55133-3.3584-2.69965-7.63049-5.33368-12.1258-4.74866-1.322.17206-3.72076.74488-4.34558,2.12842-.64215,1.42175,1.1034,3.647,1.76514,4.75232a56.74532,56.74532,0,0,0,9.17609,11.67358,50.32615,50.32615,0,0,0,5.346,4.474c.179,1.8523.34606,3.70691.5653,5.546.24182,2.02857,2.219,1.92224,3.83686,1.97009a31.54862,31.54862,0,0,0,4.23211-.11889c.018.01074.02228.03088.04492.03778,3.76453,1.14685,7.47168,2.62353,9.88526,5.90668a25.51743,25.51743,0,0,1,2.48114,4.48272c.85248,1.8465,1.8949,3.68579,2.56067,5.60651,3.06463,8.842-10.16181,7.14618-11.41931,14.1029-.05683.31458.42492.44959.48217.13294.73816-4.08374,5.65821-4.90064,8.64344-6.7627a7.00669,7.00669,0,0,0,2.84344-2.97894,6.86426,6.86426,0,0,0-.39758-5.47052c-.74561-1.7699-1.63416-3.50232-2.44812-5.24335a21.84644,21.84644,0,0,0-2.82849-4.78473c-2.2663-2.7304-5.454-4.11993-8.7403-5.17871a16.15566,16.15566,0,0,0,2.6203-.639,62.43556,62.43556,0,0,0,6.8689-3.16132c3.73468-1.79883,8.165-2.19635,11.62012-4.55853a12.72659,12.72659,0,0,0,3.52-3.91687,23.98679,23.98679,0,0,0,.68085,5.0216c.61542,1.97059,1.76093,3.75678,2.411,5.73255a25.60493,25.60493,0,0,1,.74408,2.75885,5.9249,5.9249,0,0,1,.14661,3.3211c-.4903,1.16486-1.78955,1.13007-2.86389,1.15949q-1.78025.0488-3.56085.08246a8.68421,8.68421,0,0,1-2.82569-.19415,2.95231,2.95231,0,0,1-1.90655-2.79413,10.07036,10.07036,0,0,1,.86163-5.90094c.475-.80933,1.03925-1.563,1.57373-2.333a9.31229,9.31229,0,0,1,.79657-1.19959c.96252-.98577,1.81158-.33929,2.376.62012A25.90559,25.90559,0,0,1,63.2965,60.152c.67176,1.786,1.27161,4.506-1.44207,4.731a7.29047,7.29047,0,0,1-1.47486-.04132c-1.165-.14777-1.13135-1.132-1.09442-2.02527A10.32729,10.32729,0,0,1,60.29107,58.835c.14349-.30518-.31073-.57306-.45508-.266a11.10074,11.10074,0,0,0-1.04529,3.7356c-.07531.83209-.24646,2.14355.52369,2.73046a4.37963,4.37963,0,0,0,2.88.33887,2.48452,2.48452,0,0,0,2.02527-1.39026c.6745-1.60187-.23529-3.65423-.889-5.11242-.39526-.88166-.84533-1.73737-1.29748-2.59089-.4076-.76947-.923-1.62652-1.861-1.77905-1.1167-.18158-1.59919.81836-2.12751,1.60431a25.35832,25.35832,0,0,0-2.2304,3.44513,9.36678,9.36678,0,0,0-.578,3.69586,8.48793,8.48793,0,0,0,.29462,3.11121c.85541,2.387,3.454,2.20233,5.5484,2.1582.03455-.00073.06983-.0003.10443-.00091a12.24994,12.24994,0,0,0,1.09345,5.5426,34.99527,34.99527,0,0,0,3.89032,5.65167c2.47918,3.40686,4.97137,9.207.74688,12.42908-.2525.19256-.00372.627.25232.4317,3.2912-2.51019,2.9018-7.14081,1.14264-10.44721a61.85574,61.85574,0,0,0-4.353-6.1668,12.21989,12.21989,0,0,1-2.27637-7.44519,30.51776,30.51776,0,0,0,3.6416-.1319,2.41816,2.41816,0,0,0,2.11621-1.41034,6.32928,6.32928,0,0,0-.10083-3.50568,26.63332,26.63332,0,0,0-1.41217-4.65832,40.23428,40.23428,0,0,1-1.8681-4.31513,11.71392,11.71392,0,0,1-.28333-1.44836c.0578.12964.11005.26178.17438.38849,1.55866,3.07019,5.731,4.19336,8.91541,3.76056,4.011-.54517,7.16082-3.468,9.33117-6.71265a34.78608,34.78608,0,0,0,5.1106-13.776A33.71722,33.71722,0,0,0,86.70092,21.90056Zm-61.327-1.83392c-.74811-1.61456-1.55347-3.20392-2.18732-4.86884-.59155-1.554-1.25617-3.4154-.88355-5.09674.44086-1.989,2.49982-2.395,4.26819-2.36535,3.63037.061,6.58393,2.2406,9.78125,3.66083a11.34386,11.34386,0,0,0,8.28662.66113c3.341-1.01868,6.39814-2.70752,9.83051-3.48517,3.69031-.83606,7.71149-.861,11.1236.95569a10.1832,10.1832,0,0,1,5.66754,7.8949c.00079.00952.00958.01257.01123.02154a62.15318,62.15318,0,0,0-5.76935,3.12415,64.12453,64.12453,0,0,0-12.012,9.65136c-3.71192,3.77362-7.22089,7.5835-11.70179,10.47425-.90588.58441-1.82367,1.18463-2.77826,1.6878a4.13912,4.13912,0,0,1-.54614.23779,4.12786,4.12786,0,0,0-.82623.16987c-.02142.00592-.04566.01507-.06781.022a4.78863,4.78863,0,0,1-3.06165-.88123,33.90308,33.90308,0,0,1-4.63226-4.27307C30.62426,31.5338,27.88842,25.49352,25.3739,20.06664Zm13.507,23.09393a5.76928,5.76928,0,0,1,1.71723,1.28669,33.02841,33.02841,0,0,1,3.30579,3.97216l-.12549-.03375c-.04114-.011-.06928.00848-.10358.015-3.62262-.75781-7.52679-3.36529-11.14557-1.305a6.099,6.099,0,0,0-.62244.40381c.20118-.56653.443-1.12469.66761-1.66412.25769-.6189.53045-1.23371.8388-1.82923a3.465,3.465,0,0,1,.74659-1.16028c.40228-.30236.80053.03272,1.17065.21918a2.58309,2.58309,0,0,0,1.66547.42395,5.48708,5.48708,0,0,0,.54492-.16656,4.49293,4.49293,0,0,0,.97766-.21863A1.00488,1.00488,0,0,1,38.88091,43.16057Zm-4.84918,3.879a7.48856,7.48856,0,0,1,3.05438-.0683c2.37146.40741,4.52308,1.60443,6.9018,1.99573a13.89809,13.89809,0,0,1-5.98846,2.43927,9.01077,9.01077,0,0,1-3.91462-.1225c-1.0401-.32031-2.39447-1.24688-2.44061-2.47424C31.60809,47.84954,33.27569,47.228,34.03173,47.0396ZM19.368,45.51378a59.52325,59.52325,0,0,1-4.02619-5.60284c-.61444-.96295-1.21057-1.93927-1.74591-2.94879-.44482-.83887-1.33527-2.10761-.62726-3.0008a5.57426,5.57426,0,0,1,2.84143-1.37725,9.53181,9.53181,0,0,1,3.65235-.11744,16.43392,16.43392,0,0,1,6.25372,2.62842,30.043,30.043,0,0,1,3.63635,2.72547c-.07464.40924-.11542.81256-.15814,1.23126a6.25707,6.25707,0,0,1-.74921,2.21655,8.34959,8.34959,0,0,0-.77435,2.79309c-.282,2.80652.36505,5.77307.68378,8.558.06286.54907.11047,1.1015.16565,1.65234A51.08854,51.08854,0,0,1,19.368,45.51378Zm45.47076-6.66546c.43481-1.564,1.32269-3.37915,2.93207-4.01844.40143-.15948,1.05981-.32476,1.41913.02314.50055.48468.13867,1.78027-.02417,2.372-1.08344,3.9364-3.55841,7.52758-5.73481,11.00647A32.92233,32.92233,0,0,1,64.83874,38.84832Zm21.94836-2.062A35.25307,35.25307,0,0,1,82.265,49.43993c-2.05414,3.34509-5.09223,6.48279-9.10938,7.20166-3.62384.6485-8.16009-.85358-9.22021-4.69244a14.73719,14.73719,0,0,1-.46277-2.85047c.02026-.03338.04071-.06579.061-.0993,1.35273-2.234,2.772-4.4314,3.9881-6.74487.61713-1.17408,4.26758-7.52509,1.3396-8.07215a3.23794,3.23794,0,0,0-2.62958,1.09589,9.36621,9.36621,0,0,0-2.225,4.93567,34.002,34.002,0,0,0-1.11573,8.89361c-.08007.13117-.16424.26331-.243.39423a11.85127,11.85127,0,0,1-4.30322,4.43237,24.01057,24.01057,0,0,1-5.05463,1.934,39.18884,39.18884,0,0,0-4.9541,1.738c-2.18359.98816-4.25842,2.20941-6.48993,3.09351a19.31418,19.31418,0,0,1-7.16589,1.2965,18.882,18.882,0,0,1-3.58795-.13714c-1.82184-.35773-1.44672-2.32892-1.60529-3.71442q-.39852-3.4833-.79736-6.96643c-.2793-2.44043-.82312-5.03-.46515-7.48382A14.56957,14.56957,0,0,1,29.42449,40.465a9.72116,9.72116,0,0,0,.37439-2.26233q.66339.59784,1.29432,1.2301a22.55981,22.55981,0,0,0,3.06634,2.85828c-.01331.00482-.02509.00341-.03857.00885-.83991.338-1.2865,1.71588-1.62226,2.46081a18.39142,18.39142,0,0,0-1.37848,3.64069c-.00818.03924.01221.06573.01923.09881a.75079.75079,0,0,0-.02.157,3.25576,3.25576,0,0,0,1.10181,2.14593c1.50146,1.38617,3.78924,1.37641,5.69024,1.11664a14.31406,14.31406,0,0,0,6.77008-2.83911.25652.25652,0,0,0,.0506-.39264,43.424,43.424,0,0,0-3.72473-4.5412,7.90981,7.90981,0,0,0-1.74469-1.35138c.14984-.07416.29993-.15137.45123-.23913A49.93791,49.93791,0,0,0,44.887,39.1549c3.48065-2.64575,6.34967-5.96662,9.42248-9.05121a62.57063,62.57063,0,0,1,10.7132-8.644,50.92341,50.92341,0,0,1,12.09009-5.92908,5.841,5.841,0,0,1,6.26373,1.418,12.60485,12.60485,0,0,1,3.05365,5.83526A34.456,34.456,0,0,1,86.7871,36.78637Z"></path></svg>