<svg height='100px' width='100px'  fill="#000000" xmlns="http://www.w3.org/2000/svg" data-name="Layer 1" viewBox="0 0 100 100" x="0px" y="0px"><path d="M75.03143,51.22923c3.10528-3.87689,6.15185-8.0415,6.82727-13.09851.68536-5.13129-.75574-10.52521-2.7544-15.22223C75.67968,14.86015,69.03674,7.74968,59.87164,7.103a16.25933,16.25933,0,0,0-11.35559,3.27887,12.32119,12.32119,0,0,0-1.21057,1.12439,21.58639,21.58639,0,0,0-9.442,1.97546c-4.35217,1.82385-8.34277,5.0221-9.6654,9.72864-.87867,3.12677-.341,7.03711,2.00024,9.439,1.843,1.89075,4.55078,2.43293,7.09918,2.40259,6.33087-.0755,12.17255-2.92175,18.14081-4.65948,5.11316-1.48871,10.91687-2.39679,15.97333-.21772a10.04375,10.04375,0,0,1,5.70923,5.43854c.93933,2.61872.06372,6.26837-2.91834,7.09247-2.63794.729-4.81769-1.266-6.89117-2.53729a12.475,12.475,0,0,0-5.90125-1.73737,41.0373,41.0373,0,0,0-8.13379.05469c-1.98529.25958-4.06683.94183-5.22357,2.68817a4.06817,4.06817,0,0,0-.09,4.71155.25741.25741,0,0,0,.28235.11493c3.53906-1.30231,6.85822-3.26776,10.56336-4.08881,3.10717-.68847,6.846-.3504,9.24853,1.9375,1.455,1.38544,2.50263,3.89527,1.11975,5.67377-1.37915,1.77362-3.24249.91882-4.55224-.35535-1.81372-1.76446-3.40821-3.59649-6.19776-2.7622-2.5368.75872-5.09094,4.15551-7.82812,4.78375a4.145,4.145,0,0,0-.74414-.70532,2.04023,2.04023,0,0,0-2.50263.0885.254.254,0,0,0,0,.43176,3.88215,3.88215,0,0,0,3.11475.73206A4.19,4.19,0,0,0,51.794,52.79564a12.79132,12.79132,0,0,0,4.54028,1.34381,14.34557,14.34557,0,0,0,9.64533-2.65985.25427.25427,0,0,0,0-.43177A14.20116,14.20116,0,0,0,58.386,48.066c-1.8208-.04437-3.68689,1.17041-3.12158,3.21973a2.428,2.428,0,0,0,3.76129,1.25689c1.28687-.932.926-2.82421-.00336-3.94732a12.68564,12.68564,0,0,1,2.41834.61938,15.75724,15.75724,0,0,1,3.95691,2.04059,13.52039,13.52039,0,0,1-11.06287,2.00092A10.023,10.023,0,0,1,51.526,52.07829a3.179,3.179,0,0,1-.54511-.47485c3.70068-1.18543,6.91889-6.9242,10.93579-4.28357,1.59015,1.04535,2.5893,3.10553,4.50946,3.63836A3.18976,3.18976,0,0,0,70.28442,48.149c.68475-4.79883-5.0907-7.13294-8.92786-7.04944a20.52492,20.52492,0,0,0-7.55969,2.0058c-1.483.63623-2.9408,1.33166-4.43781,1.93506-.87707.35351-1.23944.59356-1.5252-.4889a3.8568,3.8568,0,0,1,.38836-2.686c1.55262-3.00482,5.59876-3.03625,8.52247-3.07117,3.05151-.0365,6.51574-.17474,9.30712,1.23487,2.14582,1.08362,3.93018,2.9743,6.40961,3.279A4.82322,4.82322,0,0,0,77.41223,40.492c2.1972-4.60968-1.76435-9.03119-5.77637-10.767-5.10181-2.2074-10.9552-1.35663-16.1297.12774-3.41913.98084-6.7215,2.32349-10.14343,3.29926-3.42023.97528-7.22449,1.8764-10.784,1.18194-3.94025-.76867-6.18133-4.05261-6.28625-7.98718-.1756-6.58575,5.66339-11.01935,11.29016-12.992A20.4101,20.4101,0,0,1,46.879,11.98265c-2.28479,2.68231-3.49188,6.41217-1.48309,9.62207,2.00024,3.19641,6.98462,4.01288,9.3.67169,2.37579-3.42828.302-7.79883-3.05872-9.58514a10.42893,10.42893,0,0,0-3.76-1.12873A15.72676,15.72676,0,0,1,58.11859,7.5612a19.6348,19.6348,0,0,1,14.529,6.24835,33.25046,33.25046,0,0,1,7.88873,14.86267,23.71034,23.71034,0,0,1,.69947,10.21918,21.78579,21.78579,0,0,1-3.776,8.31537c-3.335,4.81817-7.8327,8.96655-9.886,14.57727-1.70868,4.66913-1.40515,10.3399,2.79028,13.58618a7.86961,7.86961,0,0,0,6.0802,1.65289c.317-.04913.18237-.531-.13293-.48217a7.74864,7.74864,0,0,1-6.94239-2.7912,10.21326,10.21326,0,0,1-2.26709-7.60187C67.55841,60.27885,71.51068,55.6248,75.03143,51.22923Zm-27.04871-.43988a1.6248,1.6248,0,0,1,1.94019.39648c.03265.03052.05859.05744.08917.08686A3.503,3.503,0,0,1,47.98272,50.78935ZM58.212,52.4033c-2.51556.88434-3.50537-2.99567-.99646-3.71832a3.88971,3.88971,0,0,1,1.04981-.143C59.40112,49.4929,60.00476,51.77305,58.212,52.4033ZM49.365,12.33683c2.90429.76709,5.59454,2.99079,5.81555,6.15314a4.89217,4.89217,0,0,1-5.71344,5.3797c-3.44306-.59143-5.15991-4.33166-4.40271-7.51581a9.606,9.606,0,0,1,2.35522-4.32647A10.90245,10.90245,0,0,1,49.365,12.33683Z"></path><path d="M33.33331,79.089c-.73364.39209-1.46326,1.05353-1.09992,1.96918.35877.90393,1.77149,1.616,2.5633,2.06775A10.68642,10.68642,0,0,0,38.678,84.45854a16.44916,16.44916,0,0,0,4.495-.09058,16.43,16.43,0,0,0,4.267-1.03375c.9154-.40137,2.45019-1.21149,2.8883-2.17633.5658-1.24609-1.3291-1.43775-2.05419-1.703-1.506-.69184-2.82764-1.93317-4.48218-2.26307a3.47935,3.47935,0,0,0-2.83118.475c-.613-1.308-3.46655-.89478-4.43982-.50549A33.62133,33.62133,0,0,0,33.33331,79.089Zm16.189,2.25147A5.1943,5.1943,0,0,1,48.088,82.43992a10.28227,10.28227,0,0,1-3.29785,1.13745c-2.73279.56134-5.67835.83905-8.33436-.20391a12.39376,12.39376,0,0,1-3.207-1.90308,1.60044,1.60044,0,0,1-.46215-.54315.20536.20536,0,0,0,.16784.01324,10.977,10.977,0,0,1,4.545-.592c1.62634.13269,3.183.66754,4.78814.928a16.17878,16.17878,0,0,0,7.43341-.27631A1.34255,1.34255,0,0,1,49.52227,81.34044Zm-8.93866-3.19062c.00873.19477.28168.35761.42682.17676.79694-.993,2.37634-.8382,3.43238-.41278,1.27661.51428,2.3554,1.41907,3.60833,1.98761.01233.00561.02234-.0025.03455.00116.01123.00622.01245.0191.02521.02405.40759.15722,1.23291.23529,1.53784.57037a16.36875,16.36875,0,0,1-8.44708.05853c-2.8667-.63379-5.5254-1.10254-8.38013-.09723a.22956.22956,0,0,0-.113.10248c.05567-.76282,1.42352-1.31939,2.10986-1.80169a7.38116,7.38116,0,0,1,2.83857-1.41327C38.31231,77.22,40.53747,77.118,40.58361,78.14982Z"></path><path d="M64.60583,58.52458c-1.17633,2.92987-2.03156,6.01739-3.57629,8.7868-1.168,2.09412-2.66162,3.80622-3.22553,6.193-.62591,2.649-.67059,5.39666-1.82037,7.9118C54.88458,83.82042,52.8197,85.788,50.9212,87.586c-3.95075,3.74158-8.68353,5.97314-14.142,4.29425-5.50732-1.694-8.62958-6.71332-9.03833-12.32172-.21869-3.00055.00354-5.91973-.84875-8.84472a61.65258,61.65258,0,0,0-2.60346-7.89521,11.179,11.179,0,0,0-1.86182-2.93475c-.83087-.92248-1.89087-1.58942-2.74792-2.4823-2.41126-2.51208-.65149-6.55762,1.88922-8.30432,2.7829-1.91315,5.61993-.91138,8.66339-.50787,2.19025.2904,4.42847-.1756,5.56757-2.24939a4.35611,4.35611,0,0,0-.7284-5.23566c-1.45941-1.456-3.40741-1.49469-5.29254-1.01544a32.89737,32.89737,0,0,1-3.19861.87433,3.87217,3.87217,0,0,1-3.918-1.90973c-1.93292-2.78058-1.74572-6.73865-1.45575-9.96436a34.00937,34.00937,0,0,1,7.741-18.63672c.20465-.24548-.14722-.60107-.35351-.35357a34.57281,34.57281,0,0,0-7.45343,15.81982,30.49293,30.49293,0,0,0-.44141,8.79877c.2547,2.30926,1.10333,5.03577,3.23877,6.29486,1.681.99115,3.54291.26935,5.25214-.23822a7.27906,7.27906,0,0,1,3.544-.40967,3.993,3.993,0,0,1,3.13776,4.0379,4.05481,4.05481,0,0,1-2.94306,3.6178c-1.73645.48432-3.59112-.11041-5.30383-.41131a8.10232,8.10232,0,0,0-6.8302,1.44378c-1.72949,1.415-3.144,4.07563-2.763,6.36182.39478,2.3692,2.914,3.432,4.3092,5.13342,2.07032,2.52454,2.6839,6.01837,3.67756,9.051a19.95371,19.95371,0,0,1,1.07251,5.09c.09979,1.69855.02349,3.404.16717,5.10053.4046,4.77875,2.83582,9.66357,7.31635,11.77887a13.305,13.305,0,0,0,13.52484-1.02582,35.33375,35.33375,0,0,0,6.2832-5.835c2.13586-2.394,2.93726-5.21472,3.42279-8.3263a21.7405,21.7405,0,0,1,.81836-3.91687,21.94228,21.94228,0,0,1,2.397-4.14654c1.84711-2.98785,2.76892-6.42456,4.068-9.66022C65.20782,58.35893,64.72442,58.22917,64.60583,58.52458Z"></path><path d="M41.42047,68.52568l-2.67316-.6352c-.31287-.07434-.44635.40766-.13293.48212a25.22966,25.22966,0,0,0,4.452,1.01624,1.21805,1.21805,0,0,0,1.37915-1.082,7.18669,7.18669,0,0,0-.7193-3.01141c-.3844-1.12054-.79864-2.23059-1.18512-3.35046a22.05175,22.05175,0,0,1-1.58508-7.283c.03009-2.76239,1.8009-5.77179,4.9082-5.58386.32141.01947.32025-.48066,0-.5a5.15451,5.15451,0,0,0-4.91394,3.36273,10.10027,10.10027,0,0,0-.14093,5.83429,54.23367,54.23367,0,0,0,2.16712,6.88806,20.53932,20.53932,0,0,1,.91943,2.8988C44.23388,69.31773,42.26306,68.72587,41.42047,68.52568Z"></path></svg>