<svg height='100px' width='100px'  fill="#000000" xmlns="http://www.w3.org/2000/svg" data-name="Layer 1" viewBox="0 0 100 100" x="0px" y="0px"><path d="M55.59094,50.97233a13.49554,13.49554,0,0,0,1.84619,2.55249,8.54285,8.54285,0,0,0,2.27594,1.66266,10.61721,10.61721,0,0,0,5.55359,1.061c4.19568-.3153,7.84784-2.85931,10.673-5.81945a58.64892,58.64892,0,0,0,4.28882-5.22321c1.13611-1.50458,2.62671-3.38129,1.826-5.38562-.81512-2.04047-3.37445-1.75757-5.15814-1.7594q-3.71531-.00393-7.43048-.00781l-7.4881-.00788c-1.1709-.00122-2.34509-.02777-3.51556.01044a8.51415,8.51415,0,0,0-2.97236.526,5.54073,5.54073,0,0,0-3.1029,4.10907,17.53608,17.53608,0,0,0-.36829,2.68683c-.01214.15674-.01849.31366-.02679.47058a5.00882,5.00882,0,0,0-3.33386-.60473,3.49023,3.49023,0,0,0-1.44287.58325q.02736-.212.04846-.42426c.21411-2.155-.11988-4.75445-1.78461-6.31036a5.44163,5.44163,0,0,0-3.28613-1.303c-1.46643-.14063-2.963-.07446-4.43445-.08521q-4.79709-.03487-9.59412-.06988l-1.63617-.0119q.24939-1.4913.60071-2.96326a35.38051,35.38051,0,0,1,5.091-11.74609,27.01757,27.01757,0,0,1,8.86145-8.2251,29.17781,29.17781,0,0,1,7.21564-3.1872c.8382-.2088,2.23444-.53985,2.92981.18586a3.59454,3.59454,0,0,1,.57593,2.8573,17.16073,17.16073,0,0,1-.82214,3.32861c-.68073,2.09357-1.464,4.26465-1.1532,6.50269a4.861,4.861,0,0,0,3.1452,4.06164,3.32994,3.32994,0,0,0,2.31415-.04169c.27276-.10992.15356-.5578-.123-.44629-1.79278.72266-3.76977-.55578-4.48987-2.21264-.93957-2.16181-.26751-4.61225.4245-6.739a32.391,32.391,0,0,0,.98957-3.35913,6.72588,6.72588,0,0,0,.08056-3.10681A2.25024,2.25024,0,0,0,51.121,11.04539a2.86309,2.86309,0,0,0-1.38629-.23749,11.90669,11.90669,0,0,0-3.861,1.01386,38.865,38.865,0,0,0-3.797,1.78924,28.3966,28.3966,0,0,0-8.28125,6.499A32.98171,32.98171,0,0,0,27.626,31.23527a41.57072,41.57072,0,0,0-1.56756,6.3833l-2.6911-.01959a9.63783,9.63783,0,0,0-3.63465.34411,3.16814,3.16814,0,0,0-1.97064,2.597,5.50364,5.50364,0,0,0,.80725,3.53174,22.32745,22.32745,0,0,0,2.6806,3.3045l3.13623,3.5354c.348.39221.69538.79547,1.04725,1.20014q.00255,3.46545.00506,6.9309c.00189,2.50684-.00561,5.01392.00659,7.52082a19.992,19.992,0,0,0,.83826,6.62683c1.13525,3.1925,3.70947,5.32678,6.49634,7.06811,2.59265,1.61994,5.49286,3.0719,7.28009,5.65192a9.63774,9.63774,0,0,1,1.10376,2.116c.10339.27649.5509.1568.44629-.12305a10.49022,10.49022,0,0,0-2.51044-3.831,20.757,20.757,0,0,0-3.62024-2.70612c-2.6286-1.635-5.4884-3.12518-7.35382-5.68457-2.66406-3.65515-2.218-8.40112-2.22107-12.68256q-.00384-5.17932-.00763-10.35864a15.84962,15.84962,0,0,0,4.80475,4.04559,10.52065,10.52065,0,0,0,7.496.47889,12.81944,12.81944,0,0,0,1.79688-.68616A13.55663,13.55663,0,0,0,47.103,46.547c1.11542-1.23755,3.25067-1.10608,4.59821-.35389.09283.05188.18194.10779.27063.16425a14.72251,14.72251,0,0,0,.09588,2.15417,15.5942,15.5942,0,0,0,1.93756,5.67078,16.01362,16.01362,0,0,1,1.508,2.85321,2.97764,2.97764,0,0,1-.40729,2.70435A4.32828,4.32828,0,0,1,52.83148,61.313a4.26689,4.26689,0,0,1-1.803.04,5.05388,5.05388,0,0,0-1.42786-.12226,1.89855,1.89855,0,0,0-1.58728,1.58271c-.0647.429-.01349.8778-.113,1.30114-.113.48078-.60382.6153-1.04358.68817a9.59522,9.59522,0,0,1-1.595.03937,7.20857,7.20857,0,0,0-1.457.13977,8.1771,8.1771,0,0,0-2.7417,1.13928,13.77479,13.77479,0,0,0-4.2063,4.61225c-.55682.91522-1.05841,1.86242-1.5589,2.8092a.23569.23569,0,0,0,.083.31659A35.03707,35.03707,0,0,0,46.37414,77.9694a9.14378,9.14378,0,0,0,5.60205-.32184,9.71015,9.71015,0,0,0,3.72437-3.46167c1.19775-1.74164,2.099-3.68262,3.46569-5.30615a1.5792,1.5792,0,0,1,.2735.19427,2.59173,2.59173,0,0,1,.67987,1.86823c.04493.76532.07709,1.538.09229,2.30444a8.13255,8.13255,0,0,1-.21381,2.26361,3.19825,3.19825,0,0,1-1.19928,1.83649,7.01929,7.01929,0,0,1-2.40033,1.06641,23.22979,23.22979,0,0,1-2.63336.413,7.493,7.493,0,0,0-2.08557.5893,7.09675,7.09675,0,0,0-3.189,2.79858,6.29162,6.29162,0,0,0-.82312,4.144,3.63793,3.63793,0,0,0,.958,2.13745,2.80511,2.80511,0,0,0,2.15613.69251,9.55945,9.55945,0,0,0,2.507-.62634q1.49487-.52113,2.98987-1.04218,3.04422-1.0611,6.08844-2.12213c3.06079-1.0669,6.79663-2.07336,7.99365-5.4754a11.9898,11.9898,0,0,0,.32165-5.03455,26.14732,26.14732,0,0,1-.18591-5.1499,14.03948,14.03948,0,0,1,4.39752-8.66895,13.18771,13.18771,0,0,1,1.90174-1.46008c.251-.159.019-.55969-.23359-.39966A14.42,14.42,0,0,0,70.68627,66.766a13.92174,13.92174,0,0,0-.72576,4.79c.045,1.77746.35711,3.53821.36907,5.31726a6.844,6.844,0,0,1-1.47723,4.7337,10.204,10.204,0,0,1-4.22467,2.50592c-1.92383.70966-3.87237,1.35712-5.80865,2.032-2.00727.69964-4.01264,1.4049-6.02185,2.09887a6.46744,6.46744,0,0,1-2.49677.48236,2.17409,2.17409,0,0,1-1.90887-1.41046A5.56136,5.56136,0,0,1,48.669,82.8494a6.61461,6.61461,0,0,1,3.06433-2.95129c1.51087-.72357,3.19062-.64056,4.78821-1.03863a5.11408,5.11408,0,0,0,3.72119-2.634,10.6248,10.6248,0,0,0,.369-4.47247c-.03619-1.24078-.091-2.7793-1.37592-3.371l-.00427-.004A33.32279,33.32279,0,0,0,48.085,64.75266a.9555.9555,0,0,0,.16949-.24713,2.98447,2.98447,0,0,0,.17578-1.12872,1.8383,1.8383,0,0,1,.37927-1.22412,1.44661,1.44661,0,0,1,1.12684-.48023c.53369.01807,1.062.15778,1.59442.20246a3.88805,3.88805,0,0,0,1.55639-.15692,4.13088,4.13088,0,0,0,3.05274-3.81427,6.06489,6.06489,0,0,0-1.02954-2.75507,26.27714,26.27714,0,0,1-1.49347-2.77509,13.961,13.961,0,0,1-1.18976-5.69348A14.68555,14.68555,0,0,1,55.59094,50.97233ZM25.451,43.95744c-.074,2.46411-.02,4.93573-.01818,7.40075v.04108c-1.71564-1.92084-3.43146-3.84265-5.12445-5.783a8.24727,8.24727,0,0,1-1.98291-3.293,3.57319,3.57319,0,0,1,.62353-3.32794,4.13636,4.13636,0,0,1,3.028-.94c1.33533-.01758,2.6728.01086,4.00855.02423A47.95817,47.95817,0,0,0,25.451,43.95744Zm21.22278,2.40185a.21967.21967,0,0,0-.01117.06873,15.04,15.04,0,0,1-1.36535,4.05987,12.35543,12.35543,0,0,1-4.20917,4.849,11.2916,11.2916,0,0,1-1.32745.74225,10.77184,10.77184,0,0,1-7.34632.75751c-2.59747-.715-4.4729-2.6275-6.21533-4.57861q-.1516-.16965-.303-.33954-.00145-2.06819-.003-4.13629c-.00165-2.22468-.00812-4.44294.18817-6.661q.13487-1.52416.37195-3.03692,4.4967.03278,8.99347.06549,2.254.01638,4.50806.03284a11.91244,11.91244,0,0,1,3.70337.36377c2.268.75622,3.10882,3.162,3.19049,5.357A11.87852,11.87852,0,0,1,46.67382,46.35929Zm12.0423,22.34156c-2.146,2.63793-3.25311,6.245-6.22284,8.13488a7.63818,7.63818,0,0,1-5.47522.77979,32.716,32.716,0,0,1-5.50183-1.43561,34.75315,34.75315,0,0,1-5.7088-2.61145l.0014-.00256a.19931.19931,0,0,0,.10742-.06671c2.08484-2.47291,5.4275-2.7934,8.44806-2.99476a34.97171,34.97171,0,0,0,4.97742-.52478c1.65216-.3518,3.24164-.923,4.9259-1.129a23.95947,23.95947,0,0,1,3.66987-.23694A3.79384,3.79384,0,0,1,58.71612,68.70085Zm-.96533-.55616c-.08814.00012-.1756.00067-.26093.00128-.66754.00495-1.33465.05292-1.99914.1139a24.47524,24.47524,0,0,0-4.27222.76123c-.7843.21527-1.56738.434-2.36694.5863a23.08858,23.08858,0,0,1-2.62848.31067c-2.99292.22089-6.33985.1474-8.973,1.80609a7.1223,7.1223,0,0,0-.73456.53723c1.7464-3.13214,4.01953-6.36194,7.77612-6.8966a19.185,19.185,0,0,0,3.05658-.20166c.04-.01239.07971-.026.11939-.04a.23122.23122,0,0,0,.05145.0169A32.70188,32.70188,0,0,1,57.75079,68.14469Zm-5.3172-22.02075a11.70964,11.70964,0,0,1,1.00354-5.01538,4.40132,4.40132,0,0,1,1.81317-1.90588,6.91926,6.91926,0,0,1,2.97235-.675c1.13434-.05261,2.27442-.0213,3.40961-.02008q1.81439.00192,3.62884.00378l7.31525.00769q1.84323.00192,3.6864.00391a24.9784,24.9784,0,0,1,3.27649.06634A2.38031,2.38031,0,0,1,81.69036,40.178a3.63916,3.63916,0,0,1-.46716,2.79925,23.45178,23.45178,0,0,1-1.90057,2.66339c-.68616.902-1.38239,1.79664-2.11054,2.66523-2.68048,3.19751-5.97522,6.17566-10.1344,7.18725a10.7556,10.7556,0,0,1-5.71356-.13543,8.64269,8.64269,0,0,1-4.62244-3.4292c-1.15362-1.67871-1.95782-3.60706-3.41674-5.06446A6.31821,6.31821,0,0,0,52.43359,46.12394Z"></path></svg>