<svg height='100px' width='100px'  fill="#000000" xmlns="http://www.w3.org/2000/svg" data-name="Layer 1" viewBox="0 0 100 100" x="0px" y="0px"><path d="M57.84521,31.9038a13.86344,13.86344,0,0,0-10.22382-.325c-2.28765.93262-4.45385,3.79193-2.96612,6.283a.71192.71192,0,0,0,.07251.0835c.00323.0238-.00946.04425.00116.06891a7.97834,7.97834,0,0,0,7.08014,5.09344c3.30432.06964,6.58178-1.26324,9.71533-2.14569a.25024.25024,0,0,0-.13294-.48218c-2.93035.82526-5.90136,1.97248-8.97009,2.11811a7.42608,7.42608,0,0,1-7.07513-4.47126,3.93444,3.93444,0,0,0,1.05053-.92236,8.15972,8.15972,0,0,1,4.40686-2.29565c4.55976-.86383,8.83375,1.48809,12.6709,3.63989a.23079.23079,0,0,0,.30506-.05255c.01245-.01215.02813-.01782.038-.03241a.253.253,0,0,0,.03662-.18878l.00031-.00147C63.25708,35.41107,60.39422,33.05066,57.84521,31.9038Zm-10.429,3.797a7.75546,7.75546,0,0,0-1.26013,1.03064c-.1568.1579-.30237.32684-.46228.48175-.33691.32636-.50439.55811-.75848.04285-.68231-1.38336.132-3.18738,1.15179-4.14661,2.3805-2.239,6.89618-2.12066,9.84223-1.35235,2.877.75024,6.32312,3.07452,7.28961,6.07794C58.50958,35.22473,52.48748,32.38873,47.41625,35.7008Z"></path><path d="M82.55145,57.72119c-2.04389-6.9599-6.87671-12.75782-10.21308-19.15027,6.1073-5.40491,13.194-13.898,8.49341-22.35889C75.68884,6.955,64.12139,6.18261,54.77246,7.592c-5.7204.86236-12.44922,2.16076-16.75495,6.31256-3.8855,3.74664-5.25323,10.64447-.207,14.10742.26593.18249.5163-.25061.25232-.43176A7.59189,7.59189,0,0,1,35.165,19.70654a11.76769,11.76769,0,0,1,5.1601-7.00983C44.56713,9.866,50.09515,8.78454,55.07678,8.04882c9.37829-1.38513,21.8457-.41235,25.98358,9.78632,3.16827,7.8089-3.20416,15.21118-8.94916,20.27814a28.80992,28.80992,0,0,1-2.97668-8.68677c-.80414-5.21918.43994-11.14209,4.808-14.493.25183-.19318.00305-.62769-.25238-.4317A14.12865,14.12865,0,0,0,68.5,24.54058c-.46166,4.63294.91358,9.10932,2.95124,13.22382.10589.21387.21649.42773.3269.6416-.57367.49927-1.13934.97565-1.68609,1.42511-4.04523,3.32556-9.40363,6.28851-13.2475,10.21015a22.03339,22.03339,0,0,0-5.73078.21533c-3.55041.80951-5.37139,3.9812-6.55743,7.15722-.9483,2.53949-2.289,6.746,1.78656,6.90577a57.08072,57.08072,0,0,0,5.94189-.14716,24.297,24.297,0,0,0,6.86274,11.82031c.10345.10382.21533.20819.32171.31214-.08044-.00287-.16131-.0091-.24163-.011-1.9159-.0473-3.833-.0188-5.74811.046-3.69519.12494-7.38385.39032-11.07819.53351A84.24589,84.24589,0,0,1,31.766,76.73461c-2.07465-.18231-3.74341-.80694-3.70826-3.156a7.5324,7.5324,0,0,1,1.49414-4.41986c.87757-1.0567,2.08667-1.30023,3.32367-1.72022A13.53183,13.53183,0,0,0,35.87,66.03686c1.49292-.9646,2.50238-2.183,2.22321-4.00568-.29883-1.9508-1.24378-4.18127-3.0951-5.09265-1.41693-.69757-3.163-1.29492-3.76684-2.92913a4.45926,4.45926,0,0,1,.4226-3.31.23134.23134,0,0,0,.00312-.12879c.29919.14539.59558.27985.86706.39594a17.795,17.795,0,0,0,7.37311,1.39838.25015.25015,0,0,0,0-.5,17.42244,17.42244,0,0,1-6.21387-.97846,12.6106,12.6106,0,0,1-2.8081-1.32806,2.22429,2.22429,0,0,1,.17554-4.00708c2.66516-1.512,6.05706-1.0716,8.543-3.09479,2.78205-2.2641,2.66126-6.62122,3.46369-9.81018.98474-3.91339,3.95337-7.19556,7.047-9.66583a24.58648,24.58648,0,0,1,12.054-5.14222c.31745-.04272.18225-.52453-.13287-.48217a24.90247,24.90247,0,0,0-11.41779,4.615c-3.118,2.29107-6.36151,5.5368-7.65845,9.26379-1.43835,4.13348-.685,9.86444-5.45471,11.85681-1.78589.746-3.71673.93433-5.54339,1.533-1.29724.42511-2.66388,1.30548-2.82367,2.7923-.153,1.42346.97448,2.33642,2.16229,2.9693-.02289.02044-.05206.0252-.06769.06073-.6701,1.52356-1.03436,3.19562.03913,4.63128a4.47668,4.47668,0,0,0,.47338.511c-2.00476.18475-4.35339,1.16-5.16131,3.04724a2.35272,2.35272,0,0,0,.77984,3.1687,2.25313,2.25313,0,0,0-1.15936.74018,3.51033,3.51033,0,0,0-.62634,2.36987,3.45092,3.45092,0,0,0,1.40747,2.79285,2.60324,2.60324,0,0,0,1.03229.49755,4.23349,4.23349,0,0,0,1.20178-.04211c.34631-.04266.68872-.10645,1.0318-.1662a4.51747,4.51747,0,0,0-1.745,1.88178c-.9237,1.81585-1.72412,5.13763.246,6.573a6.7753,6.7753,0,0,0,3.50787.82215c2.09106.16308,4.18957.21246,6.28644.19568,7.18329-.05744,14.32409-.79145,21.50427-.61188,4.51141,4.25116,10.87671,8.76373,9.07056,15.78986a.2502.2502,0,0,0,.48211.13293c1.55677-6.05566-3.086-10.92658-7.25763-14.57178q-.74011-.64673-1.46185-1.324c.40576.01434.811.01849,1.2171.03943a8.97018,8.97018,0,0,0,4.70575-.72919,6.32088,6.32088,0,0,0,2.72553-3.38159,34.73259,34.73259,0,0,1,2.58258-5.46625,22.2505,22.2505,0,0,1,4.01886-4.6496c.24139-.21368-.11328-.56622-.35358-.35351a22.43251,22.43251,0,0,0-5.49823,7.296c-.61688,1.323-.99963,2.76269-1.70605,4.0412a5.44447,5.44447,0,0,1-4.699,2.75421,28.09617,28.09617,0,0,1-3.56067-.09259C56.803,72.95324,53.823,68.993,52.79858,64.137c.43573-.02972.87213-.05933,1.30505-.08991a28.49044,28.49044,0,0,0,6.09357-.82293c4.49274-1.334,5.71551-5.46485,6.439-9.63825.05457-.31469-.42718-.44989-.48217-.13293-.57367,3.30957-1.35968,7.13354-4.68567,8.74866a15.36728,15.36728,0,0,1-5.40912,1.18927q-1.67853.14969-3.36151.24426c-.01367-.07587-.03259-.14935-.04535-.22565a14.16127,14.16127,0,0,1,1.74615-9.53937,17.50253,17.50253,0,0,1,2.61591-3.3338c.4104.01886.81909.03675,1.22223.04731l7.21478.18914a.25015.25015,0,0,0,0-.5l-7.87067-.20636c-.03234-.00085-.0653-.00244-.09771-.00335a35.90449,35.90449,0,0,1,3.68481-3.03931c3.65979-2.68359,7.41461-5.18585,10.84284-8.17273C76.72784,47.75573,84.94262,56.7146,82.5968,67.47a18.39847,18.39847,0,0,1-9.642,12.42645c-.28766.14429-.03473.57574.25238.4317a18.81053,18.81053,0,0,0,8.7132-9.19751A19.33943,19.33943,0,0,0,82.55145,57.72119Zm-55.401.886a3.80659,3.80659,0,0,1,1.3612-1.39129A7.41285,7.41285,0,0,1,32.294,56.06433a10.29458,10.29458,0,0,0,2.02576,1.13385,5.079,5.079,0,0,1,2.80377,3.14575,7.09831,7.09831,0,0,1,.55737,2.37512q-2.64111-.3068-5.28228-.61346l-2.73719-.31787c-.19635-.02283-.40844-.04035-.62549-.06287-.009-.002-.012-.01105-.0216-.01227-.11115-.0141-.22412-.0238-.33747-.03125a2.52621,2.52621,0,0,1-1.48138-.60571A2.14389,2.14389,0,0,1,27.15045,58.60717ZM32.12426,67.146c-.76336.1272-1.51953.2937-2.28406.41541a3.65145,3.65145,0,0,1-2.10754.0086A2.83761,2.83761,0,0,1,26.111,65.3385a3.70889,3.70889,0,0,1,.29553-2.19995,2.42,2.42,0,0,1,2.60779-.91492l.002-.00061c.0716.00842.14331.01745.2146.02576q1.32349.15453,2.64716.30743,2.87923.33435,5.75842.6687c-.00745.04041-.00989.08246-.01941.12219-.361,1.50525-2.18011,2.46076-3.46295,3.04993-.6676.30658-1.33917.52978-1.989.75842C32.1499,67.15551,32.1405,67.14331,32.12426,67.146ZM51.9505,60.79168a15.694,15.694,0,0,0,.24041,2.86652c-.81341.04333-1.62689.08557-2.441.11078-1.67755.05194-5.16119.71991-5.70062-1.44788-.36066-1.4494.39185-3.13428.87872-4.47394,1.15583-3.18029,2.90375-6.41882,6.50519-7.14587a20.50573,20.50573,0,0,1,4.96289-.19281A14.95962,14.95962,0,0,0,51.9505,60.79168Z"></path></svg>