<svg height='100px' width='100px'  fill="#000000" xmlns="http://www.w3.org/2000/svg" data-name="Layer 1" viewBox="0 0 100 100" x="0px" y="0px"><path d="M85.30664,20.6967c-1.93067-3.34881-6.81623-3.50671-10.185-3.0772a26.35548,26.35548,0,0,0-6.59491,2.00921,17.41622,17.41622,0,0,0-4.88086,2.87207,29.8564,29.8564,0,0,0-7.50586,9.815c-1.763,3.70929-2.45685,7.96924-4.84589,11.36841-2.47216,3.51746-6.60656,5.15894-10.72131,5.80573-4.736.74444-9.551.18841-14.31293.56683-3.77563.3-8.18475,1.13092-10.694,4.26288-1.78387,2.22662-2.14172,5.98047.18085,7.99078,2.61456,2.26306,6.6449,1.04633,9.571.17151a8.07482,8.07482,0,0,0,3.76752-1.97247,2.77476,2.77476,0,0,0,.76123-1.54248c.05982-.56915-.19824-1.29706.10742-1.83264a2.66266,2.66266,0,0,1,1.92163-.98792,7.32781,7.32781,0,0,1,5.38727,1.38971,4.48045,4.48045,0,0,0-.76977,1.47254,3.62776,3.62776,0,0,0,.67718,3.53039c.46277.58014,1.62378,1.78095,2.46887,1.2273.65607-.42981.57624-1.671.56836-2.34009a5.54706,5.54706,0,0,0-2.221-3.95618,3.48238,3.48238,0,0,1,5.49859.66c1.04016,1.8639-.5108,4.14154.59943,6.00214.00989.01654.02521.02716.0354.0434l.00372.0072c3.06,3.839,1.65064,9.25458-.18384,13.29126-1.80993,3.98285-4.181,7.734-4.6582,12.17554-.03436.31951.46594.31713.5,0,.56866-5.2923,3.936-9.59082,5.64014-14.51014,1.09472-3.16027,1.49383-6.88421-.04676-9.90582a4.92434,4.92434,0,0,0,1.1886.38568c2.5951.48432,5.4516-.22259,7.94141-.93554a52.54582,52.54582,0,0,0,11.53241-5.28339c.46973-.26935.94958-.54437,1.42847-.82837C62.18512,68.85112,53.65167,79.631,56.6607,91.86c.07684.31232.55914.18006.48218-.13287-2.31036-9.3894,2.32989-17.94653,6.96057-26.06232a63.22679,63.22679,0,0,1,4.3584,29.26349c-.02716.32062.473.31879.5,0a63.49856,63.49856,0,0,0-4.543-29.81591c1.35785-2.3761,2.70135-4.71515,3.85443-7.02649l.00037-.00574c2.3753-1.49085,4.55871-3.32141,5.101-6.233a9.48713,9.48713,0,0,0-.95709-5.94361c-.00177-.01953.01208-.03228.005-.05359a27.33482,27.33482,0,0,0-1.52472-3.32153,18.10947,18.10947,0,0,1-.74487-1.66705,3.86633,3.86633,0,0,1-.2544-.9234,10.33649,10.33649,0,0,1,7.728,9.68835c.10547,4.39588-2.977,7.84326-4.30878,11.84a22.02246,22.02246,0,0,0,3.83368,20.61035c.20368.24933.55561-.10626.35358-.35352a21.31372,21.31372,0,0,1-4.70563-11.97052,22.382,22.382,0,0,1,2.78424-12.1358c1.8794-3.60516,3.3537-7.21887,1.95435-11.28162a10.88414,10.88414,0,0,0-7.824-6.96881c-.01257-.003-.01965.00666-.03167.00537a.2701.2701,0,0,0-.03284.00556.22319.22319,0,0,0-.152.05108l-.007.01014a.26429.26429,0,0,0-.076.13806c-.00317.01251-.0155.01715-.017.03088a2.92829,2.92829,0,0,0,.22577,1.25488,16.2491,16.2491,0,0,0,.72961,1.68573c.04712.09748.09741.19446.14575.29169-.27026-.35516-.54852-.7019-.83118-1.0387A41.42812,41.42812,0,0,0,65.78924,37.804a31.18336,31.18336,0,0,0,15.59735-7.98034C83.70178,27.6198,87.29358,24.143,85.30664,20.6967ZM37.84814,58.00805a5.04769,5.04769,0,0,1,1.86108,3.347c.0199.46655.10791,1.46961-.22088,1.83551-.74945.83417-2.26007-1.31885-2.5022-1.905a3.57882,3.57882,0,0,1,.47516-3.181c.05823-.09051.12439-.17242.18909-.25592C37.71521,57.903,37.7854,57.95159,37.84814,58.00805Zm44.2854-29.64228a29.81094,29.81094,0,0,1-4.675,4.01544,30.924,30.924,0,0,1-11.14221,4.82911,30.01431,30.01431,0,0,1-6.12622.6444.25015.25015,0,0,0,0,.5,30.5471,30.5471,0,0,0,4.98975-.44458c2.95428,2.63947,6.27618,5.89039,7.42309,9.77955a7.80818,7.80818,0,0,1-.7749,6.63708A14.38378,14.38378,0,0,1,66.894,58.32872a56.86589,56.86589,0,0,1-12.04352,5.73255c-2.59845.783-5.68811,1.63794-8.3985,1.0263-2.19842-.496-2.3819-2.26715-2.17053-4.2492.1665-1.562-.00287-2.98267-1.28156-4.02851a3.95654,3.95654,0,0,0-5.40655.3512c-1.99786-1.45349-5.59558-2.51843-7.63513-.76611a1.84578,1.84578,0,0,0-.67041,1.48852,3.39441,3.39441,0,0,1-.246,1.86475,3.84951,3.84951,0,0,1-1.30981,1.20624,16.10212,16.10212,0,0,1-4.6745,1.623c-1.99676.49109-4.37884.91577-6.27069-.14856a4.8487,4.8487,0,0,1-1.91522-5.738C16.24328,52.134,21.924,50.928,26.02783,50.57512c7.7359-.66528,16.78662,1.19483,23.34491-4.10595,2.9685-2.3993,4.25189-5.97333,5.46234-9.46418a32.81543,32.81543,0,0,1,6.27417-11.30456,21.13389,21.13389,0,0,1,5.05585-4.405,30.47868,30.47868,0,0,1,6.06237-2.5459c3.75031-1.16815,11.71619-1.85107,13.06763,3.19025C85.95965,24.41875,83.691,26.71758,82.13354,28.36577Z"></path><path d="M58.70129,45.06231c-1.40662,2.51153.657,5.3963-.511,7.91-.00805.0213-.01843.04132-.02636.06268-.0979.26319.33728.44965.457.19263.00494-.01056.00634-.02136.01117-.032,1.12451-1.07617,2.73779-1.14221,4.20263-1.27985a6.87068,6.87068,0,0,0,3.88086-1.34637,4.48349,4.48349,0,0,0,1.67529-3.47254,7.3168,7.3168,0,0,0-1.46734-3.857l-.01148-.011a1.91492,1.91492,0,0,0-.03167-.29431c-.31958-1.3316-2.12671-1.375-3.19165-1.03735a2.066,2.066,0,0,0-1.17884,1.13018,2.48681,2.48681,0,0,0-.27179.93238,1.77741,1.77741,0,0,0-1.22717-.39856A2.81324,2.81324,0,0,0,58.70129,45.06231Zm6.9519,5.62628c-2.03051,1.11865-4.65759.43573-6.62939,1.5899a14.18418,14.18418,0,0,1,5.77588-6.318,4.32375,4.32375,0,0,0,2.02716-1.95435,6.01246,6.01246,0,0,1,1.06036,3.33057A4.16025,4.16025,0,0,1,65.65319,50.68859Zm-5.60382-6.342c.78113-.44574,2.0326-.44959,2.22882.62555a.20219.20219,0,0,0,.24994.1676c.00861.00049.01538.00214.02393.00183a.24434.24434,0,0,0,.02441-.00873.19876.19876,0,0,0,.19275-.22717,2.59882,2.59882,0,0,1,.33954-1.93182,2.09354,2.09354,0,0,1,2.02557-.72419c.52485.02991,1.08631.18561,1.2483.75086a1.57132,1.57132,0,0,1-.17475,1.184,5.56548,5.56548,0,0,1-2.10211,1.60937A14.51813,14.51813,0,0,0,59.013,51.19408c-.00989-1.41351-.44068-2.85547-.33307-4.285A3.1657,3.1657,0,0,1,60.04937,44.34661Z"></path><path d="M25.49176,47.78972c3.97021-.8576,6.73413-3.8999,8.916-7.13782.06995-.10375.13648-.21.20612-.314a4.05644,4.05644,0,0,0,.77746,1.14709A12.27135,12.27135,0,0,0,38.213,43.44664,11.59913,11.59913,0,0,0,41.81536,44.809,6.29372,6.29372,0,0,0,47.462,43.202a.25654.25654,0,0,0,0-.35357,11.64915,11.64915,0,0,0-5.63629-3.59931,9.09913,9.09913,0,0,0,3.98053-3.98761.254.254,0,0,0-.21588-.37616,11.74224,11.74224,0,0,0-9.03052,2.48c1.70868-2.66944,3.36548-5.37568,5.04651-8.06031,2.01447.97144,3.90833,2.26917,6.24194,1.64911,2.38056-.63257,4.09912-2.51367,5.6781-4.2868a.25312.25312,0,0,0-.05059-.39264,9.53689,9.53689,0,0,0-10.71851,1.19641q3.12469-4.9509,6.24939-9.90179a16.12391,16.12391,0,0,0,4.94159,3.4392,14.30789,14.30789,0,0,0,5.97259,1.374c.72223-.02051,1.45588-.32489,1.53876-1.12848a3.76169,3.76169,0,0,0-1.06482-2.38471,8.67174,8.67174,0,0,0-4.67572-3.0877,8.4346,8.4346,0,0,0-6.00989.67468l.54572-.86469c2.45154-3.88434,5.2666-8.64142,10.38556-8.97741.31946-.021.32178-.52112,0-.5-3.25842.21386-5.74719,2.20288-7.70636,4.63025.15631-.84363.31616-1.68659.41974-2.5387a12.10607,12.10607,0,0,0,.09851-1.79248A1.8278,1.8278,0,0,0,53.056,5.12285a.88584.88584,0,0,0-1.065-.18579,1.74207,1.74207,0,0,0-.66674.97992,5.81521,5.81521,0,0,0-.26453,2.78912,6.50085,6.50085,0,0,0,1.19617,2.92316c-.17481.23926-.34668.4801-.51258.72327-1.60479,2.35266-3.124,4.77063-4.6286,7.197.63446-3.58539-1.53161-7.28839-3.76715-10.00385-.53-.64373-1.09338-.30963-1.22034.42438a12.22175,12.22175,0,0,0-.1535,2.33923,14.59979,14.59979,0,0,0,1.00116,5.08814,8.085,8.085,0,0,0,3.03168,3.941q-1.15347,1.86547-2.31738,3.71979-2.07816,3.29278-4.15644,6.58557c.02564-1.88037.41071-3.74329-.03631-5.61786a4.58914,4.58914,0,0,0-3.49543-3.6778.25487.25487,0,0,0-.30755.17463,10.55457,10.55457,0,0,0,3.31372,9.95373q-1.79251,2.84079-3.58563,5.68121-.33747.53394-.686,1.07349a3.99539,3.99539,0,0,1-.11328-.586c-.25787-2.35058.30151-4.712-.45245-7.0188a5.36533,5.36533,0,0,0-3.52991-3.66223.25341.25341,0,0,0-.30756.17462,11.67582,11.67582,0,0,0,3.95,11.78357c-2.20788,3.32324-4.83813,6.50269-8.92352,7.38513C25.04449,47.37548,25.17755,47.85759,25.49176,47.78972ZM51.947,5.72185c.11017-.20892.28814-.46283.561-.37457.29523.09546.39447.45154.426.72235a8.40519,8.40519,0,0,1-.03925,1.76514c-.102,1.04174-.31286,2.06836-.50189,3.09729A5.477,5.477,0,0,1,51.947,5.72185Zm7.18969,12.50208a7.909,7.909,0,0,1,1.50751,1.92437c.25586.46308.58081,1.27814-.058,1.60382a2.6779,2.6779,0,0,1-1.3819.09906,15.42583,15.42583,0,0,1-5.18-1.35376,15.76171,15.76171,0,0,1-4.64771-3.26562A8.06507,8.06507,0,0,1,59.13671,18.22393ZM42.58,13.79357a14.69977,14.69977,0,0,1-.1065-2.09442c.00689-.32044.02459-.64069.05536-.95978.01983-.20581.00561-1.07965.37-.9588.16541.05487.37921.51068.49109.665q.186.2568.37006.51507c.28564.402.56591.8078.83435,1.2215a17.01719,17.01719,0,0,1,1.36542,2.48566,7.9021,7.9021,0,0,1,.25024,6.19427C43.913,19.37047,42.89642,16.38964,42.58,13.79357Zm4.34577,29.21014c-1.8064,1.68366-4.44129,1.68427-6.66187.85816-1.84991-.6883-4.09161-1.83088-5.11084-3.62116a10.41089,10.41089,0,0,0,5.97522-.66272A11.33737,11.33737,0,0,1,46.92578,43.00371ZM35.48449,39.79729a9.991,9.991,0,0,1,4.71491-.39709A9.87139,9.87139,0,0,1,35.48449,39.79729ZM45.177,35.36138a8.789,8.789,0,0,1-4.11127,3.69592,10.7752,10.7752,0,0,0-5.68841.25586A10.89919,10.89919,0,0,1,45.177,35.36138Zm7.76544-8.79022c-1.41449,1.584-2.94861,3.22064-5.03845,3.84747-2.20484.66125-3.99695-.53528-5.895-1.47046A9.01557,9.01557,0,0,1,52.94244,26.57116ZM36.1427,22.90282a4.36607,4.36607,0,0,1,2.97381,3.76648,31.67759,31.67759,0,0,1-.08178,5.16736A10.0962,10.0962,0,0,1,36.1427,22.90282Zm-5.3863,5.64587c2.60688.89624,3.33515,3.87983,3.36963,6.36683a23.64489,23.64489,0,0,0,.10669,4.31579A11.19652,11.19652,0,0,1,30.7564,28.54869Z"></path></svg>