<svg height='100px' width='100px'  fill="#000000" xmlns="http://www.w3.org/2000/svg" data-name="Layer 1" viewBox="0 0 100 100" x="0px" y="0px"><path d="M76.76433,51.36135c-2.61462-2.91229-5.9259-5.082-8.98132-7.488-.56927-.44825-1.12414-.91419-1.68316-1.37519.42657-1.48041.84051-2.96448,1.2257-4.4563.78571-3.04309,1.62122-6.38006.76526-9.50049a8.64186,8.64186,0,0,0-5.50659-5.61077c-3.476-1.39386-7.37323-1.90314-11.01465-2.694q-2.31948-.50382-4.639-1.00763c-.93707-3.69745-.458-7.763,2.68708-10.33741.24914-.20391-.10639-.55584-.35352-.35357a10.02329,10.02329,0,0,0-3.20648,9.10486,13.049,13.049,0,0,0,.27,1.4552q-3.60627-.78451-7.213-1.56672c-2.83258-.6123-6.209-1.25323-8.525.98029a11.52568,11.52568,0,0,0-2.354,3.92877q-1.07942,2.541-1.90515,5.18036A57.23215,57.23215,0,0,0,23.9818,50.15286c.02967.31762.53.32074.5,0A57.29814,57.29814,0,0,1,26.177,29.93655a40.10433,40.10433,0,0,1,3.52875-9.42664c2.01721-3.52368,5.531-3.29553,9.03168-2.54956,2.56994.54767,5.15045,1.07831,7.73089,1.61408a25.05179,25.05179,0,0,0,4.68958,8.34222,96.86786,96.86786,0,0,0,14.37592,14.7182c-1.35785,4.5871-2.91407,9.1106-4.40912,13.66089-.97309,2.96155-1.83222,5.96167-2.91791,8.88544a44.97584,44.97584,0,0,1-4.26428,8.45727A23.71878,23.71878,0,0,1,47.441,80.91207c-2.54419,1.69446-5.42554,2.07978-8.41095,2.23542-3.125.1629-5.97388,1.48638-9.06012,1.83856-2.27295.2594-5.62671.08966-7.07287-1.98871-.77057-1.10742-.95325-2.77063-1.31623-4.06134q-.46288-1.646-.85968-3.30969a5.27478,5.27478,0,0,0,1.19794.69006c3.25262,1.45337,6.881,1.23437,10.3468.91669,2.22778-.20423,5.09314-.99659,5.98682-3.22516a7.17657,7.17657,0,0,0,.82629-.06116,3.31426,3.31426,0,0,0,3.02948-3.69739c-.26129-2.37323-2.26367-3.782-4.36749-4.48767-2.38458-.79992-6.02631-.85547-7.42609-3.3352-.94238-1.66938.2461-3.21424,1.18091-4.54615a9.297,9.297,0,0,0,1.62982-3.64355c.55042-2.84644-.11572-5.70648-.33905-8.54681-.21277-2.70594.04682-6.15,2.72193-7.60718a15.40289,15.40289,0,0,1,4.89831-1.163l5.63941-.92358c2.89129-.47351,6.24542-1.36627,9.10955-.30164.80188.2981,3.96473,2.28461,1.882,2.9748a8.19664,8.19664,0,0,1-2.35125.11016l-2.96753.01081c-1.59687.0058-3.19776-.02436-4.79395.02057a5.36158,5.36158,0,0,0-3.11737.7937c-1.60535,1.22009-.98486,3.42889.41571,4.53448a4.7657,4.7657,0,0,0,1.85468.83765c-1.26789.10083-2.53565.14172-3.81336.18414a4.8915,4.8915,0,0,0-3.33044,1.328,13.04189,13.04189,0,0,0-2.24005,2.88154c-.3324.55535-.97138,1.51757-.50861,2.166.51239.718,1.77026.38049,2.469.312,1.71692-.16846,3.46668.53626,5.15778.7771a17.09356,17.09356,0,0,0,8.8833-1.38086,18.09549,18.09549,0,0,0,3.01959-1.54352c.47174-.31488,1.19739-.77624,1.29688-1.39215.23865-1.47717-3.48737-2.35211-4.46466-2.71191a18.78268,18.78268,0,0,0-4.86017-.85535c-1.81586-.17749-5.5094-1.53344-4.132-4.116.94513-1.772,4.05438-1.32044,5.69074-1.32642,2.14257-.00781,4.28735.012,6.42956-.02338.78467-.01294,2.01264.02436,2.58173-.64007.65124-.76032-.21039-1.47583-.74768-1.98218-2.11194-1.9903-4.88312-2.09784-7.63642-1.7608-3.9198.47985-7.8446,1.21344-11.734,1.89538-2.89935.5083-4.97894,1.884-5.64471,4.86609-.70233,3.14612.21655,6.32526.328,9.48077a10.14486,10.14486,0,0,1-1.11468,5.52613c-.76129,1.31317-2.01148,2.45331-2.21448,4.02759-.32141,2.49218,2.15924,3.87835,4.17822,4.52636,2.94477.94507,8.1048,1.3443,7.96216,5.57672-.064,1.89911-1.61188,2.56232-3.21381,2.69123a4.05538,4.05538,0,0,0,.09082-.54438c.24494-2.48846-2.02014-3.73913-4.14233-4.08093a24.28377,24.28377,0,0,1-3.98047-.4884c-1.41357-.47553-2.57977-1.49127-3.96515-2.04083a4.93482,4.93482,0,0,0-6.16681,2.402c-1.51879,2.77069-.28765,6.20148.47712,9.022.71606,2.641.94177,5.81262,3.71936,7.0545,2.46386,1.10156,5.35717.85944,7.90362.23145a42.15572,42.15572,0,0,1,5.64618-1.32618c1.504-.15741,3.01349-.1427,4.51123-.38665,6.75964-1.101,10.81452-7.23267,13.86951-12.821a55.04569,55.04569,0,0,0,3.88074-9.8504c1.141-3.5957,2.37213-7.15753,3.54931-10.74115q1.13169-3.44522,2.14636-6.9278c1.33637,1.10511,2.69184,2.18933,4.07966,3.237,3.075,2.32141,6.349,4.75757,8.33618,8.13648,2.34289,3.98376,1.82556,8.49109-.42542,12.39276-2.14368,3.7157-5.37433,6.74512-8.65082,9.45795a64.49757,64.49757,0,0,1-10.788,7.21844,65.17655,65.17655,0,0,1-27.59863,7.59448c-.32038.01477-.32221.51483,0,.5A65.64008,65.64008,0,0,0,55.102,85.66811,60.682,60.682,0,0,0,75.29235,71.21774c2.55432-2.8877,4.80786-6.382,5.1369-10.31635A12.75815,12.75815,0,0,0,76.76433,51.36135Zm-31.51757.64252c-1.24909-.47754-1.02106-2.09107-.94251-3.16748A4.096,4.096,0,0,1,45.705,45.72622a3.68083,3.68083,0,0,1,1.94964.00183,1.4282,1.4282,0,0,1,.928,1.39862,7.0124,7.0124,0,0,1-.687,3.68079A2.23431,2.23431,0,0,1,45.24676,52.00387Zm-1.74274.071a26.27211,26.27211,0,0,0-4.34045-.76886c-.9112.00873-3.15534.68543-2.39942-1.02807a11.68163,11.68163,0,0,1,1.8725-2.7605,5.23488,5.23488,0,0,1,4.381-1.86359c.70349-.01214,1.406-.04712,2.10748-.094a4.63144,4.63144,0,0,0-1.28479,2.88763,9.22716,9.22716,0,0,0-.0249,2.472,1.95047,1.95047,0,0,0,.76355,1.27081C44.22033,52.16244,43.86175,52.13339,43.504,52.07485ZM52.616,46.15341A30.12066,30.12066,0,0,1,55.47784,47.317c.45471.22906,1.14166.50427.9591,1.0896-.15143.48553-1.00818.89557-1.40912,1.13464a19.65793,19.65793,0,0,1-5.94354,2.32306c-.57757.12165-1.15936.20618-1.74255.2713a3.17255,3.17255,0,0,0,.713-.67364,6.83153,6.83153,0,0,0,1.02789-4.33527A1.92938,1.92938,0,0,0,48.03869,45.352a2.19284,2.19284,0,0,0-.26264-.0863l.01416-.00806A18.83158,18.83158,0,0,1,52.616,46.15341ZM35.00951,76.20071a17.95273,17.95273,0,0,1-5.18994.69842,20.378,20.378,0,0,1-5.26452-.23925c-1.18982-.25074-4.65925-1.03254-3.8595-2.8653.5213-1.19458,2.54913-1.41583,3.65912-1.35382,1.69732.09491,3.40387.41113,5.09118.6189q2.652.32666,5.3039.65319c.95941.11817,1.93835.27076,2.91369.29871A4.97458,4.97458,0,0,1,35.00951,76.20071ZM20.608,69.129a4.6832,4.6832,0,0,1,3.57624-2.63544c2.70916-.29437,4.68,2.29657,7.29736,2.63318,2.15051.27649,5.49982-.06024,6.38867,2.54462a2.83225,2.83225,0,0,1,.01367,1.83759c-.269.003-.53515-.00617-.79138-.02594-1.90991-.14734-3.81695-.45166-5.718-.6858-2.08935-.25732-4.178-.52209-6.26818-.77191a6.46236,6.46236,0,0,0-3.52845.39807,2.92632,2.92632,0,0,0-1.311,1.11853A6.72666,6.72666,0,0,1,20.608,69.129Zm36.929-34.58923c-3.49109-3.67139-7.19238-7.66406-9.46936-12.23175a15.476,15.476,0,0,1-1.01581-2.61219c4.20093.87452,8.39917,1.77277,12.54663,2.82087,2.8573.722,5.92816,1.8656,7.40381,4.61578,1.55261,2.8938.907,6.43555.17206,9.468-.45233,1.86609-.95954,3.71411-1.49726,5.5523A96.71141,96.71141,0,0,1,57.53692,34.53976Z"></path></svg>