<svg height="100" width="100" xmlns="http://www.w3.org/2000/svg" data-name="Layer 1"><path d="M86.7 21.9c-1.103-3.622-3.82-7.77-8.133-7.212a22.638 22.638 0 00-6.207 2.219c-.213.097-.417.21-.628.31-.596-5.532-5.842-9.142-11.09-9.63a24.153 24.153 0 00-10.65 1.837c-3.743 1.415-7.295 3.48-11.414 2.279-3.491-1.02-6.396-3.506-9.988-4.248-1.784-.368-4.295-.508-5.777.792-2.53 2.216-.314 6.768.763 9.159 2.791 6.198 6.512 12.805 5.837 19.818-.21-.19-.421-.375-.64-.551-3.359-2.7-7.63-5.334-12.126-4.749-1.322.172-3.72.745-4.346 2.128-.642 1.422 1.104 3.647 1.765 4.753a56.745 56.745 0 009.176 11.673 50.326 50.326 0 005.346 4.474c.18 1.853.347 3.707.566 5.546.242 2.029 2.219 1.923 3.837 1.97a31.549 31.549 0 004.232-.118c.018.01.022.03.045.037 3.764 1.147 7.471 2.624 9.885 5.907a25.517 25.517 0 012.481 4.483c.853 1.846 1.895 3.686 2.56 5.606 3.065 8.842-10.161 7.146-11.419 14.103-.056.315.425.45.483.133.738-4.084 5.658-4.9 8.643-6.763a7.007 7.007 0 002.843-2.979 6.864 6.864 0 00-.397-5.47c-.746-1.77-1.634-3.502-2.448-5.243a21.846 21.846 0 00-2.829-4.785c-2.266-2.73-5.454-4.12-8.74-5.179a16.156 16.156 0 002.62-.639 62.436 62.436 0 006.87-3.161c3.734-1.799 8.164-2.197 11.62-4.559a12.727 12.727 0 003.52-3.917 23.987 23.987 0 00.68 5.022c.616 1.97 1.761 3.757 2.411 5.733a25.605 25.605 0 01.744 2.758 5.925 5.925 0 01.147 3.322c-.49 1.164-1.79 1.13-2.864 1.159q-1.78.049-3.56.082a8.684 8.684 0 01-2.827-.194 2.952 2.952 0 01-1.906-2.794 10.07 10.07 0 01.862-5.9c.475-.81 1.039-1.564 1.573-2.334a9.312 9.312 0 01.797-1.2c.962-.985 1.811-.339 2.376.62a25.906 25.906 0 011.904 3.954c.671 1.786 1.271 4.506-1.443 4.731a7.29 7.29 0 01-1.474-.041c-1.165-.148-1.132-1.132-1.095-2.026a10.327 10.327 0 011.006-3.981c.144-.305-.31-.573-.455-.266a11.1 11.1 0 00-1.045 3.736c-.076.832-.247 2.143.523 2.73a4.38 4.38 0 002.88.339 2.485 2.485 0 002.026-1.39c.674-1.602-.236-3.655-.89-5.113-.395-.881-.845-1.737-1.297-2.59-.407-.77-.923-1.627-1.86-1.78-1.118-.181-1.6.819-2.128 1.605a25.358 25.358 0 00-2.23 3.445 9.367 9.367 0 00-.579 3.696 8.488 8.488 0 00.295 3.11c.855 2.388 3.454 2.203 5.548 2.159h.105a12.25 12.25 0 001.093 5.542 34.995 34.995 0 003.89 5.651c2.48 3.407 4.972 9.207.747 12.43-.252.192-.003.626.253.431 3.29-2.51 2.901-7.14 1.142-10.447a61.856 61.856 0 00-4.353-6.167 12.22 12.22 0 01-2.276-7.445 30.518 30.518 0 003.642-.132 2.418 2.418 0 002.116-1.41 6.33 6.33 0 00-.101-3.506 26.633 26.633 0 00-1.412-4.658 40.234 40.234 0 01-1.868-4.315 11.714 11.714 0 01-.284-1.449c.058.13.11.262.175.389 1.558 3.07 5.73 4.193 8.915 3.76 4.011-.545 7.16-3.468 9.331-6.712a34.786 34.786 0 005.11-13.776 33.717 33.717 0 00-.603-14.801zm-61.326-1.833c-.748-1.615-1.554-3.204-2.187-4.87-.592-1.553-1.257-3.415-.884-5.096.44-1.989 2.5-2.395 4.268-2.365 3.63.06 6.584 2.24 9.781 3.66a11.344 11.344 0 008.287.662c3.341-1.019 6.398-2.708 9.83-3.485 3.69-.837 7.712-.861 11.124.955a10.183 10.183 0 015.668 7.895c0 .01.01.013.011.022a62.153 62.153 0 00-5.77 3.124 64.125 64.125 0 00-12.011 9.651c-3.712 3.774-7.221 7.584-11.702 10.474-.906.585-1.824 1.185-2.778 1.688a4.14 4.14 0 01-.547.238 4.128 4.128 0 00-.826.17l-.068.022a4.789 4.789 0 01-3.061-.881 33.903 33.903 0 01-4.633-4.273c.748-6.124-1.988-12.164-4.502-17.591zM38.88 43.16a5.77 5.77 0 011.717 1.286 33.028 33.028 0 013.306 3.972l-.126-.033c-.04-.011-.069.008-.103.015-3.623-.758-7.527-3.366-11.146-1.305a6.099 6.099 0 00-.622.403c.201-.566.443-1.124.667-1.664.258-.619.53-1.233.84-1.829a3.465 3.465 0 01.746-1.16c.402-.303.8.033 1.17.219a2.583 2.583 0 001.666.424 5.487 5.487 0 00.545-.167 4.493 4.493 0 00.978-.218 1.005 1.005 0 01.362.057zm-4.85 3.879a7.489 7.489 0 013.055-.069c2.372.408 4.523 1.605 6.902 1.996a13.898 13.898 0 01-5.989 2.44 9.01 9.01 0 01-3.914-.123c-1.04-.32-2.395-1.247-2.44-2.474-.037-.96 1.63-1.582 2.387-1.77zm-14.663-1.526a59.523 59.523 0 01-4.026-5.603 42.663 42.663 0 01-1.746-2.949c-.445-.839-1.335-2.107-.627-3a5.574 5.574 0 012.841-1.378 9.532 9.532 0 013.652-.117 16.434 16.434 0 016.254 2.628 30.043 30.043 0 013.636 2.726c-.074.409-.115.812-.158 1.23a6.257 6.257 0 01-.749 2.217 8.35 8.35 0 00-.774 2.793c-.282 2.807.365 5.774.684 8.558.062.55.11 1.102.165 1.653a51.089 51.089 0 01-9.152-8.758zm45.47-6.666c.436-1.564 1.323-3.379 2.933-4.018.401-.16 1.06-.325 1.419.023.5.485.139 1.78-.024 2.372-1.084 3.936-3.559 7.528-5.735 11.006a32.922 32.922 0 011.408-9.383zm21.95-2.062a35.253 35.253 0 01-4.523 12.654c-2.054 3.345-5.092 6.483-9.11 7.202-3.623.648-8.16-.854-9.22-4.693a14.737 14.737 0 01-.462-2.85l.06-.1c1.353-2.234 2.773-4.431 3.989-6.744.617-1.175 4.267-7.526 1.34-8.073a3.238 3.238 0 00-2.63 1.096 9.366 9.366 0 00-2.225 4.936 34.002 34.002 0 00-1.116 8.894c-.08.13-.164.263-.243.394a11.851 11.851 0 01-4.303 4.432 24.01 24.01 0 01-5.055 1.934 39.189 39.189 0 00-4.954 1.738c-2.184.988-4.258 2.21-6.49 3.094a19.314 19.314 0 01-7.166 1.296 18.882 18.882 0 01-3.588-.137c-1.822-.358-1.446-2.329-1.605-3.714l-.797-6.967c-.28-2.44-.823-5.03-.465-7.484a14.57 14.57 0 011.2-3.229 9.721 9.721 0 00.374-2.262q.663.598 1.294 1.23a22.56 22.56 0 003.067 2.858c-.014.005-.026.003-.039.009-.84.338-1.287 1.716-1.622 2.46a18.391 18.391 0 00-1.379 3.641c-.008.04.012.066.02.1a.75.75 0 00-.02.156 3.256 3.256 0 001.101 2.146c1.502 1.386 3.79 1.377 5.69 1.117a14.314 14.314 0 006.77-2.84.257.257 0 00.051-.392 43.424 43.424 0 00-3.725-4.541 7.91 7.91 0 00-1.744-1.352c.15-.074.3-.15.451-.239a49.938 49.938 0 005.173-3.401c3.48-2.646 6.35-5.967 9.422-9.051a62.57 62.57 0 0110.714-8.644 50.923 50.923 0 0112.09-5.93 5.841 5.841 0 016.264 1.419 12.605 12.605 0 013.053 5.835 34.456 34.456 0 01.357 14.002z"/></svg>