<svg height='100px' width='100px'  fill="#000000" xmlns="http://www.w3.org/2000/svg" data-name="Layer 1" viewBox="0 0 100 100" x="0px" y="0px"><path d="M70.4174,66.14835q2.52246-1.11539,5.04516-2.23077c.23487-.10382.03162-.44836-.20166-.34515Q69.908,65.93916,64.55509,68.306q-2.64569,1.16976-5.29126,2.33954A50.56617,50.56617,0,0,1,54.5081,72.5521c-.34119.11115-.68958.21424-1.0409.3114-.07617.018-.1521.03882-.228.061-2.69665.71417-5.62426.91723-8.11059-.53479-2.80322-1.637-4.16675-4.807-5.15186-7.74787-.56372-1.68292-1.05908-3.39129-1.762-5.024A24.94709,24.94709,0,0,0,35.80643,55.391c-1.79772-2.61871-3.88549-5.06989-5.27551-7.94653a11.16091,11.16091,0,0,1-1.19873-4.39661,11.395,11.395,0,0,1,.64234-4.12665,27.15773,27.15773,0,0,1,4.26037-7.34143,7.37489,7.37489,0,0,0,1.53272.43591,2.53677,2.53677,0,0,0,1.97839-.40759,2.72469,2.72469,0,0,0,.905-1.64307,11.1536,11.1536,0,0,0,.15295-2.22149,15.77887,15.77887,0,0,0-.14978-2.17938c2.16236-3.24945,3.87061-6.75629,3.90357-10.72791a11.29262,11.29262,0,0,0-2.69043-7.70306A10.2399,10.2399,0,0,0,32.148,4.07652a16.49513,16.49513,0,0,0-8.43811,2.43066,9.81449,9.81449,0,0,0-4.86866,6.93933c-.85961,6.30969,4.12549,11.366,8.887,14.65546a33.05306,33.05306,0,0,0,3.99658,2.37213q.97083.4856,1.97729.8952c.04981.0202.10047.03967.15052.05976-3.02722,4.05993-6.02332,8.84887-4.52381,14.051.85669,2.97247,2.81946,5.5343,4.61768,7.99451.9353,1.27948,1.86951,2.564,2.68042,3.92724a23.98642,23.98642,0,0,1,2.064,4.59925c1.03186,3.0404,1.84327,6.263,3.953,8.77636a8.57133,8.57133,0,0,0,3.51892,2.54425,9.88975,9.88975,0,0,0,4.46875.50043,17.6513,17.6513,0,0,0,3.09765-.61664,6.21028,6.21028,0,0,1,4.25464.998,12.30361,12.30361,0,0,1,3.86914,3.70837,24.7653,24.7653,0,0,1,2.41944,5.01569c.75757,1.98749,1.49194,3.98407,2.23681,5.97638q1.28686,3.4422,2.57361,6.8844c.08924.23877.47583.13537.38538-.10627-1.563-4.181-3.11328-8.367-4.6897-12.543a27.49651,27.49651,0,0,0-2.41943-5.18311,12.9799,12.9799,0,0,0-3.82886-3.88251,7.997,7.997,0,0,0-3.3855-1.31457c1.63928-.5727,3.23633-1.28864,4.813-1.98572ZM38.36832,29.04228a3.39692,3.39692,0,0,1-.63671,2.03234,2.17149,2.17149,0,0,1-2.17945.49677A9.51238,9.51238,0,0,1,34.471,31.2642c1.26574-1.68176,2.61731-3.40637,3.84936-5.20722A17.25578,17.25578,0,0,1,38.36832,29.04228Zm-6.9082.84845a31.98587,31.98587,0,0,1-7.55884-5.42994,14.88818,14.88818,0,0,1-4.54541-7.61627,9.76929,9.76929,0,0,1,.126-4.53393A8.69489,8.69489,0,0,1,21.80729,8.479a14.99952,14.99952,0,0,1,7.90185-3.786,11.454,11.454,0,0,1,8.49561,1.5061,9.92389,9.92389,0,0,1,3.90088,7.33716c.37768,4.19208-1.30969,7.97785-3.54614,11.4397a8.76261,8.76261,0,0,0-1.96765-4.04962,25.272,25.272,0,0,0-3.51563-3.16242c-2.27869-1.82775-4.85034-4.10083-4.67908-7.29895a4.05061,4.05061,0,0,1,1.71778-3.25988c.21557-.13892.01538-.48511-.20166-.34516-2.19092,1.41248-2.33863,4.50189-1.26966,6.65912,1.4104,2.84607,4.31678,4.452,6.56165,6.54718a9.45523,9.45523,0,0,1,2.707,3.93823,9.7624,9.7624,0,0,1,.33325,1.45606c-1.10522,1.66009-2.32275,3.24518-3.48291,4.76306q-.33527.43854-.67554.8905A25.22465,25.22465,0,0,1,31.46012,29.89073Z"></path><path d="M80.93705,61.51078a19.83426,19.83426,0,0,0-4.5675-9.30591,19.0585,19.0585,0,0,0-3.92261-3.41095,26.74231,26.74231,0,0,0-5.38819-2.57159c-3.65039-1.34692-7.51245-2.32312-10.73681-4.59009-2.36548-1.66308-4.54248-4.155-4.98047-7.0777a5.39666,5.39666,0,0,0,2.34058-.02356c1.39819-.35113,2.98461-1.45965,3.16577-3.00085a2.38884,2.38884,0,0,0-2.717-2.491,3.63042,3.63042,0,0,0-3.15235,3.16291,6.66068,6.66068,0,0,0-.09692,1.809,7.66921,7.66921,0,0,1-3.17163-1.80292,10.81331,10.81331,0,0,1-3.26245-8.77777c.36889-3.947,2.48693-7.48706,4.89379-10.53729.58985-.74756,1.20472-1.4748,1.833-2.19025.16907-.19263-.11255-.47644-.28271-.28265C48.2653,13.411,45.75529,16.71708,44.60343,20.5836a12.69693,12.69693,0,0,0-.49756,5.3814,11.47073,11.47073,0,0,0,1.6958,4.55866,9.4832,9.4832,0,0,0,3.3772,3.24347,7.76337,7.76337,0,0,0,1.75269.69079,8.9426,8.9426,0,0,0,.85351,2.74262c1.61768,3.26422,4.87427,5.46472,8.13758,6.85535,3.9259,1.67291,8.20385,2.55963,11.87646,4.80175A19.19308,19.19308,0,0,1,79.07584,57.067a18.51448,18.51448,0,0,1,1.51221,11.03833,19.49277,19.49277,0,0,1-5.078,10.067,18.31122,18.31122,0,0,1-2.089,1.87048c-.20142.15424-.00256.50159.2019.34516a19.60242,19.60242,0,0,0,6.304-8.44342A19.0499,19.0499,0,0,0,80.93705,61.51078ZM51.27335,32.9871c.1211-1.68927,1.10181-3.50781,2.98731-3.5545a2.15618,2.15618,0,0,1,1.94507.9414,1.93384,1.93384,0,0,1-.13819,2.09943,4.42753,4.42753,0,0,1-4.30993,1.73334c-.16028-.02106-.31238-.072-.46961-.10492A7.06357,7.06357,0,0,1,51.27335,32.9871Z"></path><path d="M40.99821,60.92509a.20174.20174,0,0,0,0,.28265,10.507,10.507,0,0,0,5.78027,3.00244,6.85007,6.85007,0,0,0,3.21545-.20251,12.48734,12.48734,0,0,0,2.87122-1.48828c.459-.29908.91162-.60749,1.37061-.90644a11.02169,11.02169,0,0,0,1.40893-.97668,1.69942,1.69942,0,0,0,.59436-.80377.31227.31227,0,0,0-.09485-.31018,3.738,3.738,0,0,0-.74243-.426,8.00194,8.00194,0,0,1-2.01855-1.18652,8.53068,8.53068,0,0,0-2.28907-2.0318,3.49751,3.49751,0,0,0-4.0249,1.17584,2.01754,2.01754,0,0,0-2.07495-.83557c-1.31787.27155-2.02978,1.65277-2.58691,2.73669A5.79746,5.79746,0,0,1,40.99821,60.92509Zm2.86865-3.54657a2.0519,2.0519,0,0,1,1.82581-.77765,1.28688,1.28688,0,0,1,1.17285,1.14831.2.2,0,0,0,.39978,0c-.00366-.67492.73877-1.1416,1.2738-1.397a2.75169,2.75169,0,0,1,2.118-.22784,5.87,5.87,0,0,1,2.25049,1.85022,4.915,4.915,0,0,0,1.605,1.10925c.1825.09277.36475.186.54541.28186.25427.1347.50269.312.76563.426l.00439.00164c-.02234.03656-.052.10437-.06164.119a2.292,2.292,0,0,1-.37793.41718,9.41733,9.41733,0,0,1-1.28553.89349c-.42529.27576-.84484.56043-1.26831.83905a13.86377,13.86377,0,0,1-2.616,1.44226,6.26115,6.26115,0,0,1-2.90625.37366,10.00392,10.00392,0,0,1-5.88111-2.81366C42.542,60.05229,42.85831,58.47556,43.86686,57.37852Z"></path></svg>