<svg height='100px' width='100px'  fill="#000000" xmlns="http://www.w3.org/2000/svg" data-name="Layer 1" viewBox="0 0 100 100" x="0px" y="0px"><path d="M57.26157,27.90949c-.02685.95331.49414,1.62988,1.42108,1.08167A13.42468,13.42468,0,0,0,62.412,25.1291c.1861-.26325-.24725-.51331-.4317-.25232a16.56954,16.56954,0,0,1-2.35083,2.69171c-.543.49591-1.64819,1.92871-1.81927.01068a3.80333,3.80333,0,0,1,.66516-1.812c.68695-1.185,2.288-2.2688,1.45916-3.81488A2.45832,2.45832,0,0,0,56.842,20.94666c-1.70136.65387-1.9162,2.1297-2.64081,3.49066-.45484-1.77777-.69647-3.67981-2.0119-5.06067a7.57339,7.57339,0,0,0-5.61908-2.2232c-5.18677.17029-8.99958,6.34961-14.4054,4.6402-.30749-.09723-.43909.38531-.13293.48217,4.524,1.43055,8.00213-2.50085,11.86786-4.02392a7.38659,7.38659,0,0,1,6.94781.6485c2.19074,1.4909,2.33716,3.91882,3.02576,6.24249a.2533.2533,0,0,0,.45691.05975c.59649-.88452.70526-2.00775,1.392-2.82879.87811-1.04975,2.97979-1.82483,3.78051-.16919.63654,1.31628-1.122,2.60174-1.6485,3.66351A5.135,5.135,0,0,0,57.26157,27.90949Z"></path><path d="M74.57981,77.28217A19.8558,19.8558,0,0,1,70.5394,67.25226a11.09262,11.09262,0,0,1,3.35028-9.12384q2.0366-.69808,4.02576-1.52618c1.88025-.78442,3.904-1.62268,5.23932-3.23114A6.67306,6.67306,0,0,0,84.396,47.955c-.74359-4.61926-4.07928-9.01416-7.35125-12.19824a4.99614,4.99614,0,0,0-4.17518-1.72973,3.63075,3.63075,0,0,0-2.98492,2.21667A8.82989,8.82989,0,0,0,69.47,38.79157a8.14717,8.14717,0,0,1-1.33289,3.45172c-.70807,1.27808-1.2735,2.98206-.22528,4.24573a2.52716,2.52716,0,0,0,1.0448.75549,4.14249,4.14249,0,0,1-.37964.42829c-1.78278,1.62921-3.77936-.29468-3.831-2.24866-.06757-2.5592,4.21612-8.93744-.90528-9.49188a15.78021,15.78021,0,0,1-3.6286-.33368,10.82324,10.82324,0,0,1-3.37713-2.12689c-1.63221-1.38367-3.18091-3.06037-5.30017-3.68256-2.23359-.6557-3.77747.48041-5.27271,2.01917-1.97565,2.03308-4.05933,4.0086-5.9162,6.151-1.29779,1.49731-2.3042,3.16925-2.02826,5.209.179,1.32288.87421,1.91187,1.941.81122,1.813-1.87036,2.91431-4.41724,4.5849-6.4137.61444-.73431,1.48346-1.46179,2.46912-.86194a2.20033,2.20033,0,0,1,.79474,2.40888c-.2743,1.24109-1.17981,2.25311-1.68769,3.39715a16.23285,16.23285,0,0,0-.8526,2.88,4.43425,4.43425,0,0,0-.2453,2.05755c.31482,1.001,1.58863.41553,2.24134.11847A14.95305,14.95305,0,0,0,51.67893,44.77a12.65672,12.65672,0,0,0,1.89471-2.25861c.769-1.20038,1.06421-2.64569,1.82117-3.83923.42755-.67414,2.06867-1.95978.75611-2.62763-1.09046-.55493-3.23774-.29913-4.35077.07685a3.59014,3.59014,0,0,0-1.72144,1.29736c-.5224.67474-1.03381,1.34875-1.55933,2.01282a2.93472,2.93472,0,0,0-.541-2.87561,2.05743,2.05743,0,0,0-2.97339.10614c-1.53076,1.35546-2.60461,3.48419-3.76916,5.1463-.34247.48877-1.60877,2.83844-2.32508,1.88958a3.223,3.223,0,0,1-.17224-1.34314,4.69178,4.69178,0,0,1,.62494-2.17456c1.06641-1.99383,2.94836-3.57867,4.5033-5.18273q1.2885-1.32925,2.577-2.65851a6.179,6.179,0,0,1,3.16809-2.19947c2.39789-.43444,4.50489,1.60334,6.1413,3.05085a13.27013,13.27013,0,0,0,4.326,2.89025c1.75769.59675,5.01367-.41845,5.71,1.82294.604,1.94422-.80151,3.94989-1.28784,5.7497a4.40057,4.40057,0,0,0,.6701,4.21551,2.50791,2.50791,0,0,0,3.205.58582,4.13534,4.13534,0,0,0,1.14007-1.06177,4.18084,4.18084,0,0,0,3.00068-.833,17.37911,17.37911,0,0,0,4.22863-5.22412,7.92931,7.92931,0,0,0,1.23969-3.88824c.05823.06555.11792.13269.17548.19714,2.79846,3.13416,6.119,7.74231,5.842,12.16974-.1565,2.50152-1.7967,4.15057-3.916,5.25653a46.3264,46.3264,0,0,1-6.61725,2.67566,66.01119,66.01119,0,0,1-13.86023,3.07483c-8.35833.92279-19.67138.42755-23.44677-8.67383-3.31726-7.99683,1.2088-17.6759-4.04438-25.10352a10.08814,10.08814,0,0,0-3.63232-3.19348c-.28558-.14721-.53876.28412-.25238.43177,5.02209,2.58941,6.10821,8.56976,6.14313,13.70568.03436,5.05823-.6308,10.45838,1.68664,15.16144,4.59656,9.32837,16.90851,9.15,25.6706,7.90253a66.34094,66.34094,0,0,0,11.11212-2.58252c-4.31647,4.64947-3.08191,11.87732-.07056,16.95709,4.05164,6.83478,11.00324,11.84766,13.28015,19.71088a.25024.25024,0,0,0,.48218-.13294C84.489,87.92884,78.68723,83.11756,74.57981,77.28217ZM52.27012,36.50544A8.31686,8.31686,0,0,1,54.5806,36.324c.29041.00726.94239-.06561,1.164.11408.7284.59069-.22064,1.21685-.54242,1.64538a8.2167,8.2167,0,0,0-.888,1.75452,13.30269,13.30269,0,0,1-2.01348,3.53711,14.32479,14.32479,0,0,1-3.788,3.12567,8.15648,8.15648,0,0,1-1.94494.92108c-1.18879.31073-.68006-1.21735-.51862-1.899.16724-.70611.31763-1.43066.5542-2.11645a15.09566,15.09566,0,0,1,1.23071-2.40277c.01709-.01142.036-.00568.05188-.0232q.98163-1.08435,1.85962-2.2536C50.47318,37.7591,51.01969,36.83845,52.27012,36.50544Zm25.10547,1.70093A9.2131,9.2131,0,0,1,76.20737,41.264c-1.064,1.80829-2.69214,4.29969-4.61462,5.29511a3.27382,3.27382,0,0,1-1.72656.34021c.57446-.89508,1.00537-1.93335,1.44647-2.77045a46.8178,46.8178,0,0,1,3.37189-6.268,3.641,3.641,0,0,1,1.1715-1.06757c.44776-.23279,1.27051-.27386,1.55475.31354A2.58363,2.58363,0,0,1,77.37559,38.20637Zm-3.09736-.65064a23.30833,23.30833,0,0,0-1.70977,3.11841q-1.0688,2.02816-2.13752,4.05634A22.671,22.671,0,0,1,69.2988,46.7934a1.95025,1.95025,0,0,1-1.40435-1.40014,4.40313,4.40313,0,0,1,.83667-3.1781,8.60836,8.60836,0,0,0,1.28674-4.06751c.19116-2.007,1.19256-3.67883,3.4237-3.65417a4.782,4.782,0,0,1,3.22284,1.54834A3.76634,3.76634,0,0,0,74.27823,37.55573Z"></path><path d="M22.30723,14.2887c2.7279-3.54626,6.78149-5.59051,10.7882-7.36023,1.8003-.79516,3.84278-1.81036,5.86811-1.7409,2.10327.07214,3.5935,1.45294,5.11035,2.74414a32.17471,32.17471,0,0,0,9.82721,5.8172c4.45929,1.63037,9.14581,2.66455,13.358,4.923,4.28668,2.29834,8.13861,6.15814,8.70935,11.19183.03583.31611.53626.31977.5,0C75.35605,20.05207,64.70884,16.74457,56.76133,14.1861a35.45986,35.45986,0,0,1-12.7995-7.00921,8.60853,8.60853,0,0,0-4.445-2.4466A10.2848,10.2848,0,0,0,34.45109,5.8064C29.81168,7.70716,25.00266,9.971,21.87546,14.03632,21.67942,14.29121,22.1135,14.54047,22.30723,14.2887Z"></path><path d="M62.84867,69.1803c-5.21625-1.80218-10.72186-.45709-16.021.18036-5.57342.67054-11.48675.79865-16.63641-1.76739-4.90552-2.4444-7.55493-6.94769-8.47607-12.23285-.15046-.8634-.24842-1.73047-.32648-2.59894.78375-1.81964,1.59027-3.632,2.205-5.51111a30.27494,30.27494,0,0,0,1.36566-11.82379,30.83419,30.83419,0,0,0-3.96094-12.79932.25021.25021,0,0,0-.43176.25239A30.54185,30.54185,0,0,1,22.293,49.35316c-.31275.785-.64808,1.56738-.98572,2.35052-.28046-4.3736.05975-8.79126-.53931-13.14661-.66052-4.80181-2.68256-9.67681-6.9469-12.32464-.27411-.17023-.52545.26214-.25232.43176,4.58252,2.8454,6.39374,8.27277,6.87073,13.39142.391,4.19574.08759,8.44257.44464,12.63538a28.15243,28.15243,0,0,0-2.668,9.00091A15.36874,15.36874,0,0,0,33.10953,78.1756c.32178.01355.32111-.48651,0-.5a15.07368,15.07368,0,0,1-14.0556-18.25476,32.434,32.434,0,0,1,1.93732-5.72235c.10608.93842.23706,1.87482.43677,2.80567a16.14394,16.14394,0,0,0,7.32385,10.87042c4.328,2.59393,9.47735,3.12744,14.42322,2.82831,6.4176-.38813,13.237-2.71833,19.54071-.54047C63.02054,69.76771,63.15146,69.28492,62.84867,69.1803Z"></path></svg>